<svg xmlns="http://www.w3.org/2000/svg" width="281.999" height="62.43" viewBox="0 0 281.999 62.43">
  <g id="ECA-logo-grey-01" transform="translate(-1.7 -6.4)">
    <path id="Path_9984" data-name="Path 9984" d="M51.173,65.614a6.063,6.063,0,0,0,.942-.6c.248-.149.545-.347.793-.5a6.667,6.667,0,0,1,.694-.545c.248-.2.5-.347.793-.545l.149-.149c.05-.05.1-.05.2-.1a6.281,6.281,0,0,0,.645-.545c.149-.149.3-.347.446-.5a5.271,5.271,0,0,1,.545-.446c.05-.05.1-.149.2-.2a2.993,2.993,0,0,0,.4-.4,1.507,1.507,0,0,0,.248-.347c.3-.3.6-.645.893-.992.2-.248.446-.545.645-.793l.446-.6c.05-.1.149-.149.248-.248.248-.347.446-.645.694-.992a1.243,1.243,0,0,1,.2-.347c.05-.1.1-.149.149-.248l.149-.3c.149-.248.3-.545.446-.793.1-.2.248-.4.347-.645.1-.2.149-.446.248-.645s.2-.446.3-.694c.347-.942.694-1.934.992-2.926,0-.1.05-.248.05-.347a8.636,8.636,0,0,0,.248-1.091c0-.2.05-.4.05-.6.05-.3.1-.645.149-.992,0-.248.05-.5.05-.793,0-.1.05-.2.05-.3a2.827,2.827,0,0,1,.05-.645c0-.1.05-.2.05-.3v-.446c.05-.992.1-2.033.05-2.975-.05-.5-.149-.992-.2-1.488s-.1-1.041-.2-1.537a27.832,27.832,0,0,0-1.14-3.967c-.05-.2-.2-.347-.248-.545-.149-.4-.347-.744-.5-1.091a1.037,1.037,0,0,0-.2-.3c-.149-.3-.248-.645-.4-.942-.1-.2-.248-.347-.347-.545l-.3-.6c-.347-.545-.694-1.041-1.041-1.587-.149-.149-.248-.3-.4-.446l-.446-.6a3.787,3.787,0,0,1-.446-.446,1.037,1.037,0,0,0-.2-.3l-.347-.347c-.05-.05-.149-.1-.2-.2-.149-.2-.347-.4-.5-.6l-.446-.446-.446-.446c-.2-.149-.4-.3-.645-.5-.2-.2-.446-.347-.645-.545l-.446-.3c-.2-.149-.347-.248-.545-.4-.149-.1-.248-.2-.4-.3a1.037,1.037,0,0,1-.3-.2c-.149-.1-.248-.2-.4-.3-.446-.248-.893-.5-1.339-.694-.149-.1-.347-.2-.5-.3-.3-.149-.6-.3-.843-.446-.248-.1-.5-.2-.694-.3-.1-.05-.248-.149-.347-.2s-.2-.05-.3-.1c-.149-.05-.3-.149-.446-.2-.446-.149-.942-.3-1.388-.446-.2-.05-.446-.149-.694-.2-.5-.149-.992-.2-1.488-.347-.347-.05-.645-.149-.992-.2-.2-.05-.446-.05-.645-.1-.347-.05-.744-.149-1.14-.2h-.446a.629.629,0,0,1-.3-.05h-.6a12.084,12.084,0,0,0-1.339-.05,2.8,2.8,0,0,1-.645,0h-.694a.3.3,0,0,0-.2.05h-.5a2.148,2.148,0,0,0-.248.05.447.447,0,0,0-.248.05h-.4a.629.629,0,0,0-.3.05,1.656,1.656,0,0,0-.744.149h-.149a.667.667,0,0,0-.446.1,3.557,3.557,0,0,0-1.041.248,1.758,1.758,0,0,0-.545.149,1.448,1.448,0,0,0-.446.1,2.455,2.455,0,0,0-.645.2c-.1.05-.3.05-.4.1a1.461,1.461,0,0,0-.645.248c-.149.05-.248.1-.4.149a21.78,21.78,0,0,0-2.182,1.041c-.1.1-.248.149-.347.248a15.177,15.177,0,0,0-2.43,1.488,5.613,5.613,0,0,0-.645.5c-.1.1-.248.2-.347.3-.2.149-.446.3-.645.446a13.512,13.512,0,0,0-1.24,1.14c-.248.2-.5.446-.744.645-.1.1-.149.2-.248.3a2.156,2.156,0,0,1-.347.3c-.2.2-.3.4-.446.545l-.446.446a.871.871,0,0,1-.2.248l-.744.893c-.149.248-.3.5-.446.694-.2.3-.446.645-.645.942l-.149.3-.446.744c-.149.248-.2.545-.347.793a1.037,1.037,0,0,1-.2.3,4.534,4.534,0,0,0-.347.694,1.761,1.761,0,0,1-.2.446,1.761,1.761,0,0,0-.2.446,2.417,2.417,0,0,1-.2.545c-.05.2-.149.4-.2.545-.347,1.19-.645,2.38-.942,3.62,0,.248-.05.5-.05.694a4.257,4.257,0,0,0-.149.843,2.827,2.827,0,0,1-.05.645c0,.149-.05.347-.05.5-.05.992,0,1.983,0,2.926a13.192,13.192,0,0,0,.149,1.388,2.414,2.414,0,0,0,.05.6c.05.645.149,1.289.248,1.884.05.149.1.3.149.5a12.2,12.2,0,0,0,.347,1.438l.149.3c.05.1.05.248.1.347.2.545.347,1.041.545,1.587l.3.6a3.416,3.416,0,0,0,.149.4c.149.347.347.645.5.942.149.248.3.5.446.793a.7.7,0,0,1,.1.3l.149.149a2.417,2.417,0,0,1,.149.347,5.03,5.03,0,0,0,.446.645,2.768,2.768,0,0,1,.248.4,1.941,1.941,0,0,1,.4.5,2.751,2.751,0,0,0,.3.4,7.419,7.419,0,0,1,.545.645c.149.2.3.347.446.545a5.657,5.657,0,0,0,.545.545c.149.149.3.4.446.545a9.163,9.163,0,0,1,.694.694l.347.347a5.613,5.613,0,0,1,.645.5l.545.545c.149.1.248.2.4.3a4.47,4.47,0,0,0,.5.446,7.253,7.253,0,0,0,.645.446c.149.1.3.149.446.248s.347.248.5.347.347.2.5.3a18.427,18.427,0,0,0,1.934,1.041c.3.149.545.3.893.446a4.29,4.29,0,0,1,.843.347c.1.05.2.05.3.1a6.049,6.049,0,0,1,.843.347c.1,0,.149.05.248.05l.744.3a8.056,8.056,0,0,1,.942.2,13.869,13.869,0,0,0,1.388.3c.149,0,.347.05.5.05a3.349,3.349,0,0,0,.694.1,2.034,2.034,0,0,1,.545.05c.1,0,.248.05.347.05h.347c.3.05.545.1.843.149h.446a.447.447,0,0,0,.248-.05c.248,0,.545.05.793.05h.5a5.493,5.493,0,0,0,.942-.1h.4c.2,0,.4-.05.545-.05.645-.05,1.289-.149,1.934-.248.2-.05.446-.1.645-.149.248-.05.545-.1.793-.149.149-.05.248-.1.4-.149.2-.05.446-.149.645-.2.1-.05.2-.05.3-.1.149-.05.3-.05.446-.1.347-.1.645-.248.992-.347l.6-.3a1.833,1.833,0,0,0,.545-.248c.05-.05.1-.05.149-.1l.6-.3c.2-.149.446-.248.645-.4a.881.881,0,0,0,.545-.05m5.8-6.248c-.2,0-.6.05-.744-.1-.05,0,0-.05,0-.1.05-.149-.05-.347.1-.446.05,0,.1-.05.149-.05.149,0,.843,0,.893.1.149.149-.3.5-.4.6m.793-.992a.629.629,0,0,0-.3.05c-.4,0-.744-.05-1.14-.05a2.8,2.8,0,0,1,0-.645h.942c.149,0,.3.05.4.05h.6a1.158,1.158,0,0,1-.5.6m1.091-1.438c-.05,0-.05.05-.05.1a2.725,2.725,0,0,1-.347.446c-.05,0-.149.05-.2.05-.149,0-.5-.1-.6-.05-.2,0-.446-.1-.645,0-.149,0-.6,0-.645-.1-.05-.05,0-.149,0-.2v-.248c0-.05.1-.05.149-.05.645,0,1.24,0,1.835.05a1.653,1.653,0,0,0,.5,0Zm.694-.992c-.05,0-.347.6-.545.645a6.646,6.646,0,0,1-.992-.05c-.4,0-.744-.05-1.091-.05-.149,0-.4.05-.545-.05-.1-.05-.05-.3-.05-.4,0-.2.1-.149.248-.248h.744c.3,0,.545.05.843.05h.893a.816.816,0,0,1,.5.1h0m.1-.446a.857.857,0,0,0-.5.05,3.32,3.32,0,0,0-.992,0,10.365,10.365,0,0,1-1.24-.05c-.2-.05-.4-.05-.6-.1,0-.05,0-.05-.05-.1v-.4c0-.05.248-.05.3-.05h.446c.149,0,.3-.05.446-.05.248,0,.5.05.744.05a1.859,1.859,0,0,0,.545-.05,3.728,3.728,0,0,0,.744,0c.149,0,.3.05.5.05.05.2-.149.645-.347.645m.694-1.091-.149.149h-.446c-.149,0-.5-.1-.645,0a2.389,2.389,0,0,0-.6,0,1.662,1.662,0,0,0-.5,0,1.662,1.662,0,0,0-.5,0H56.33c-.05,0,0,0,0-.05v-.545a1.167,1.167,0,0,0,.4-.1h.694a.629.629,0,0,0,.3-.05h2.529a.372.372,0,0,1,.248.05,1,1,0,0,1-.149.545m.5-1.091c-.05.1-.1.248-.248.248h-.149c-.149,0-.248-.05-.4-.05h-.793a.629.629,0,0,0-.3.05,2.766,2.766,0,0,0-.645,0h-.6c-.1,0-.2-.05-.3,0H56.33c-.05,0-.05-.2-.05-.248,0-.1,0-.3.05-.347.05-.1.694-.05.893-.1h.3c.248,0,.545.05.793.05a1.86,1.86,0,0,0,.5-.05c.149,0,.248.05.446.05h.793c.2,0,.694-.1.843,0h.05c0,.1-.1.3-.1.4m.3-.843a.3.3,0,0,1-.2.05,2.62,2.62,0,0,0-.645.05c-.1,0-.2-.05-.3,0h-.446a2.828,2.828,0,0,1-.645-.05c-.1,0-.248-.05-.347,0h-.843c-.149,0-.4-.1-.545,0h-.248a1.859,1.859,0,0,1-.545-.05.3.3,0,0,1-.05-.2.844.844,0,0,0-.05-.347c.149,0,.347-.05.5-.05h1.587c.149,0,.248-.05.4-.05h1.19c.248,0,.446.05.645.05a.372.372,0,0,0,.248-.05,1.529,1.529,0,0,1,.5.05.79.79,0,0,1-.2.6m.5-1.19-.149.3h-.744a2.794,2.794,0,0,0-.645,0,.629.629,0,0,0-.3.05,5.389,5.389,0,0,0-.893-.05h-.347a1.662,1.662,0,0,0-.5,0,10.5,10.5,0,0,1-1.835-.1c-.1-.1-.05-.5-.05-.645h.942c.3,0,.545.05.843.05H59.4a1.092,1.092,0,0,0,.4-.05.629.629,0,0,1,.3.05.447.447,0,0,0,.248-.05,4.446,4.446,0,0,1,1.19.1.35.35,0,0,1,.1.347m.3-1.041a1,1,0,0,1-.2.4,11.184,11.184,0,0,0-1.289,0,.3.3,0,0,0-.2.05,5.966,5.966,0,0,0-.942,0h-.6c-.149,0-.347-.05-.446,0a2.009,2.009,0,0,0-.545,0c-.5,0-.992-.05-1.488-.05,0-.149-.05-.5.05-.6,0-.05.2-.05.248-.05.1.05.2,0,.3,0a4.241,4.241,0,0,0,.793,0h.744a2.828,2.828,0,0,0,.645-.05,9.166,9.166,0,0,0,1.14.05,3.753,3.753,0,0,1,.744-.05,3.5,3.5,0,0,1,1.041.05.221.221,0,0,1,0,.248m.2-.744c0,.1-.05.149-.05.2H60.991a2.828,2.828,0,0,1-.645-.05h-.5a2.009,2.009,0,0,0-.545,0h-.3c-.248,0-.446-.05-.694-.05-.694-.05-1.339-.05-2.033-.05-.05,0,0-.5,0-.6h2.38a4.386,4.386,0,0,0,1.14,0h.942a.629.629,0,0,1,.3.05,8.035,8.035,0,0,1,1.091.05.688.688,0,0,1,0,.446m.149-.793c-.05,0-.05,0-.1.05a5.328,5.328,0,0,0-.893,0,1.653,1.653,0,0,0-.5,0h-.645c-.1,0-.248-.05-.3,0a.844.844,0,0,0-.347.05c-.149,0-.248-.05-.4-.05h-.645c-.1,0-.248-.05-.347,0-.1,0-.248-.05-.347-.05H56.33a2.38,2.38,0,0,1,0-.6h1.537c.1,0,.2.05.3.05.149,0,.3-.05.446-.05a3.164,3.164,0,0,0,.992-.05.629.629,0,0,1,.3.05c.2,0,.4-.05.6-.05a8.035,8.035,0,0,1,1.091.05,3.05,3.05,0,0,1,.694.05c.1-.05,0,.446,0,.545m.149-1.041c-.05.05-.149.05-.2.1H60.842c-.2,0-.446-.1-.6,0a2,2,0,0,0-.545,0c-.446,0-.942-.05-1.388-.05h-.4c-.1,0-.248-.05-.347,0-.446,0-.843-.05-1.289-.05a1.859,1.859,0,0,1,.05-.545,2.043,2.043,0,0,1,.6-.05h1.289a2.6,2.6,0,0,0,.893-.1c.3,0,.6.05.893.05h1.587c.248,0,.6-.1.793.05.2.1.1.545.05.6m.05-.893c-.05,0-.149.05-.2.05-.149,0-.5-.05-.6-.05h-.4c-.6,0-1.19-.05-1.785-.05a2.38,2.38,0,0,0-.6,0,2.38,2.38,0,0,0-.6,0H56.825c-.149,0-.347-.05-.5-.05v-.149c0-.149-.05-.3.05-.446,0-.05.149,0,.149,0h1.14a1.348,1.348,0,0,0,.446,0c.645,0,1.24.05,1.884.05a3.753,3.753,0,0,0,.744-.05c.5,0,1.041,0,1.537.05.1,0,.2.05.3.05,0,.2,0,.5-.1.6m.149-.942c0,.05-.2.05-.2.05H59.5a.629.629,0,0,1-.3-.05h-.645c-.1,0-.3-.05-.4,0H56.379a2.793,2.793,0,0,0,0-.645c0-.05.05,0,.1,0h.992c.3,0,.6-.05.893-.05H59.4a.3.3,0,0,1,.2.05H60.3a.447.447,0,0,0,.248-.05h1.14a3.494,3.494,0,0,1,1.041.05,3.413,3.413,0,0,1-.1.645m.1-1.041c-.1,0-.2.05-.347.05a3.239,3.239,0,0,0-.694,0c-.149,0-.347-.05-.446,0a2,2,0,0,0-.545,0,8.4,8.4,0,0,1-1.091-.05H58.065a2.009,2.009,0,0,0-.545,0h-.545a1.058,1.058,0,0,0-.4,0H56.33c-.149-.05-.1-.5-.1-.645h1.14a2.827,2.827,0,0,0,.645-.05h3.322a2.414,2.414,0,0,0,.6-.05h.4c.1,0,.149.05.248,0,.2.1.149.694.149.744m.05-1.339V43.8c0,.05-.1.05-.149.05h-.3a1.662,1.662,0,0,0-.5,0H59.9a2.39,2.39,0,0,0-.6,0,2.794,2.794,0,0,0-.645,0c-.149,0-.347-.05-.446,0H56.429c-.05,0,0,0,0-.05v-.5c0-.05.1,0,.149,0,.446,0,.843-.05,1.289-.05h.942c.149,0,.248.05.4.05a.968.968,0,0,0,.347-.05h2.826c.1,0,.5-.05.545.05-.149,0-.149.1-.149.149m-.1-.6c-.05,0-.149.05-.2.05a.857.857,0,0,0-.5.05c-.248,0-.5-.05-.744-.05h-.545c-.2,0-.6-.1-.793,0-.2,0-.5-.1-.694,0h-.6a2.389,2.389,0,0,0-.6,0,2,2,0,0,0-.545,0h-.347c-.149,0-.694.05-.744-.05a.629.629,0,0,1-.05-.3c0-.1-.1-.3.05-.347a2.4,2.4,0,0,1,.843,0H58.66a2.009,2.009,0,0,0,.545,0c.347,0,.694.05,1.041.05.6,0,1.19-.05,1.785,0,.2,0,.4.05.645.05,0,.1.149.446,0,.545m-.05-.992c-.1.1-.694,0-.843.05h-.942a1.662,1.662,0,0,0-.5,0,4.232,4.232,0,0,0-.793,0,2.39,2.39,0,0,0-.6,0h-1.14c-.1,0-.2-.05-.3,0H56.429c-.05,0,0-.2-.05-.248a.3.3,0,0,0-.05-.2c0-.248.248-.2.446-.248.248,0,.446.05.694.05h.645c.248,0,.5-.05.694-.05.843,0,1.785.05,2.678.05a4.2,4.2,0,0,1,1.14.05c.05.05.05.2.05.248-.05.1,0,.248-.05.3m-.05-.942c0,.05-.1,0-.149,0h-.446a2.009,2.009,0,0,0-.545,0,1.662,1.662,0,0,0-.5,0h-.248c-.3,0-.545-.05-.843-.05h-.942a.447.447,0,0,0-.248.05c-.1,0-.248-.05-.347,0h-.645c-.1,0-.248-.05-.347,0a2.752,2.752,0,0,1-.942-.1c-.05-.05-.05-.1-.05-.2s-.05-.3.05-.347.3,0,.446,0H59.85a10.339,10.339,0,0,0,1.24,0h.4a2.6,2.6,0,0,1,.893.1c.149.05.2.446.2.545m-.149-.942c0,.05-.149.05-.2.05H61.189c-.1,0-.248-.05-.3,0h-.4a3.719,3.719,0,0,0-.744,0c-.149,0-.347-.05-.446,0H57.52a1.348,1.348,0,0,0-.446,0c-.149,0-.694,0-.744-.1a.3.3,0,0,1-.05-.2c0-.1,0-.3.1-.3h.3a8.778,8.778,0,0,1,1.14-.05H59.4a3.32,3.32,0,0,0,.992,0,10.212,10.212,0,0,1,1.835.1c.248.1.2.347.2.5m-.2-.992c-.05,0-.05,0-.1.05h-.4a1.662,1.662,0,0,0-.5,0H58.958a4.231,4.231,0,0,0-.793,0H56.379c-.05,0-.05,0-.05-.05,0-.1-.05-.5.05-.545.05-.05.1-.05.2-.05h1.388a2.827,2.827,0,0,0,.645-.05h2.331a2.8,2.8,0,0,0,.645,0,1.687,1.687,0,0,1,.5.05c.05.149.1.5.149.6m-.248-.942c0,.05-.2,0-.248,0h-.347a5.694,5.694,0,0,1-.942-.05H59.007c-.149,0-.347-.1-.5,0a2,2,0,0,0-.545,0h-.793a4.008,4.008,0,0,1-.793-.05c-.05,0-.05-.5-.05-.6h0a1.373,1.373,0,0,0,.446-.05h2.43a.3.3,0,0,0,.2-.05h1.537a1.662,1.662,0,0,0,.5,0c.1,0,.248,0,.3.05a3.232,3.232,0,0,1,.248.744m-.446-1.488c.1.05.248.5.1.545a2,2,0,0,1-.545,0H59.751c-.149,0-.347-.05-.446,0h-.347a4.241,4.241,0,0,0-.793,0c-.149,0-.3-.05-.4,0a1.662,1.662,0,0,0-.5,0c-.347,0-.6-.05-.942-.05a2.223,2.223,0,0,1,.05-.6,3.253,3.253,0,0,1,.992-.05h.942a2.8,2.8,0,0,0,.645,0,1.687,1.687,0,0,0,.5-.05c.149,0,.3.05.446.05a6.322,6.322,0,0,0,.992-.05.3.3,0,0,0,.2-.05c.149.149.347.149.446.248m-.248-.545c.05.2.05.149-.1.248H60.2a1.662,1.662,0,0,0-.5,0h-.6c-.1,0-.2-.05-.3,0-.1,0-.3-.05-.4,0h-.5c-.1,0-.2-.05-.248,0-.2,0-.545-.1-.744,0a1.859,1.859,0,0,1-.545-.05c-.05,0-.05,0-.05-.05v-.248c0-.149-.05-.3.149-.3h1.19c.5,0,.992-.05,1.537-.05a3.939,3.939,0,0,0,1.091-.05c.2.05.694-.1.843.1a3.418,3.418,0,0,1,.149.4m-.6-1.388c.05.05.3.545.2.645-.149.1-.545-.05-.744.05h-.793a2.827,2.827,0,0,0-.645-.05.447.447,0,0,0-.248.05h-1.14c-.149,0-.347-.05-.446,0a1.529,1.529,0,0,1-.5-.05,2.424,2.424,0,0,1-.05-.645c0-.05.4-.05.446-.05h.793c.2,0,.4.05.645.05.2,0,.347-.05.545-.05H60.3c.2,0,.347,0,.4.05m-.446-.992a1.1,1.1,0,0,1,.248.545c.1,0-.149.1-.149.1a2.389,2.389,0,0,0-.6,0,2,2,0,0,0-.545,0,3.728,3.728,0,0,0-.744,0h-.149a4.231,4.231,0,0,0-.793,0,4.585,4.585,0,0,1-1.19-.05c-.05,0,0-.248,0-.3s0-.2.05-.248c.1-.1.545-.1.694-.1h.1c.3.05.6,0,.942.05H59.85c.149,0,.3-.1.4,0m-.248-.6a.225.225,0,0,1,0,.248h-.248a1.653,1.653,0,0,0-.5,0h-.248c-.149,0-.446-.1-.6,0H56.974c-.1,0-.2-.05-.3,0a.629.629,0,0,1-.3-.05c-.05,0,0,0,0-.05,0-.1-.05-.5.05-.6a.844.844,0,0,1,.347-.05h.992c.5,0,.992.05,1.488.05.149,0,.446-.05.545.05a1.484,1.484,0,0,1,.2.4M59.3,31.746c.1.05.1.149.149.248.05.05.05.1.1.149s.05.149.1.2c-.05,0-.1.05-.149.05a4.538,4.538,0,0,0-.793-.05H57.073c-.1,0-.3-.05-.4,0a.372.372,0,0,1-.248-.05,2.62,2.62,0,0,1-.05-.645c.694,0,1.388.05,2.083.05.149.05.694-.05.843.05m-.694-.992a2.038,2.038,0,0,1,.4.645c-.05,0-.05,0-.1.05a2.794,2.794,0,0,0-.645,0h-.4c-.2,0-.446-.1-.6-.05h-.149c-.248,0-.5-.05-.793-.05,0-.2-.1-.545.05-.645h1.438a2.008,2.008,0,0,1,.793.05m-.843-.992h.248a.729.729,0,0,1,.248.3c.05.05.149.149.1.248,0,.05-.05.05-.1.05H56.875a1.373,1.373,0,0,1-.446-.05c-.1-.05-.05-.5-.05-.6.446.05.942,0,1.388.05m-.2-.347a.182.182,0,0,1-.149.05,6.656,6.656,0,0,1-1.041-.05c-.05-.05-.05-.2-.05-.3a.735.735,0,0,1,.05-.347,2.828,2.828,0,0,1,.645.05,1.262,1.262,0,0,1,.545.6m-1.24-1.587c.1.05.5.446.446.545-.05.05-.149.05-.2.1a.3.3,0,0,1-.2-.05,2.414,2.414,0,0,1-.05-.6m-.545,32.777c.05-.1.149-.2.2-.3a2.491,2.491,0,0,0,.248-.645h.5c0,.248-.793.843-.942.942M21.867,28.474s.347-.446.4-.5c.1.05.1.446.05.5A.372.372,0,0,1,21.867,28.474Zm-.793.942c0-.149.2-.248.3-.347a1.315,1.315,0,0,1,.248-.3,3.753,3.753,0,0,1,.744.05c.05,0,0,0,0,.05v.545h0a2.009,2.009,0,0,0-.545,0h-.149a.624.624,0,0,1-.6,0m-.645.694a.5.5,0,0,1,.2-.248c.05-.05.149,0,.248,0h1.438a.182.182,0,0,0,.05.149v.446c0,.05-.2.05-.2.05a3.274,3.274,0,0,1-.694-.05h-.248a2.794,2.794,0,0,0-.645,0H20.33c-.05-.149.05-.248.1-.347m-.744,1.14c.05-.1.2-.4.347-.446.1-.05.2-.05.3-.1h.5c.248,0,.545.05.793.05a.844.844,0,0,0,.347-.05c.149,0,.248.05.4.05,0,.149.05.5-.05.6a.173.173,0,0,0-.1.05.967.967,0,0,0-.4.05h-.3a1.662,1.662,0,0,0-.5,0h-.645a1.651,1.651,0,0,1-.694-.05c-.1.05,0-.1,0-.149m-.347.5a3.24,3.24,0,0,1,.694,0h.942a2.39,2.39,0,0,0,.6,0,.629.629,0,0,0,.3-.05h.5a2.62,2.62,0,0,1-.05.645c-.05.05-.2.05-.248.05h-.446a2.793,2.793,0,0,0-.645,0,2,2,0,0,0-.545,0c-.2,0-.6-.1-.793,0h-.6a1.107,1.107,0,0,1,.3-.645m-.793,1.488a1.168,1.168,0,0,1,.248-.5c.05-.05.1-.05.149-.1.347,0,.694.05,1.041.05h1.339a2.85,2.85,0,0,1,.942.05c.1.05.1.2.1.3s0,.3-.1.347h-.149a2.009,2.009,0,0,0-.545,0,6,6,0,0,1-.942-.05,2,2,0,0,0-.545,0h-.2c-.3,0-.545-.05-.793-.05-.2,0-.4.05-.545-.05h0m-.2.4c.149,0,.3.05.446.05.4,0,.793-.05,1.19-.05h1.636c.248,0,.446.1.694.1a2.034,2.034,0,0,1-.05.545,3.938,3.938,0,0,1-1.091.05,1.653,1.653,0,0,0-.5,0h-.5c-.1,0-.248-.05-.347,0H18.545c-.149,0-.3-.05-.5-.05a1.3,1.3,0,0,1,.3-.645M17.8,34.87c.05-.05.05-.149.1-.2s.1-.05.149-.1a4.008,4.008,0,0,1,.793.05h.446c.347,0,.793.05,1.14.05.248,0,.5-.05.694-.05a9.555,9.555,0,0,1,1.19.05c0,.05.05.1.05.2v.5H20.974a4.537,4.537,0,0,1-.843-.05,3.24,3.24,0,0,0-.694,0,.372.372,0,0,0-.248.05c-.2,0-.4-.05-.6-.05H17.7c-.1-.2.05-.347.1-.446m-.545,1.289a.915.915,0,0,1,.248-.6c.4,0,.793.05,1.19.05h1.091c.1,0,.248.05.347.05h1.736a.967.967,0,0,1,.4.05,1.859,1.859,0,0,1,.05.545c0,.05-.1.05-.149.05h-.3c-.2,0-.545-.1-.694,0-.1,0-.248-.05-.347,0h-.248c-.3,0-.6-.05-.893-.05-.1,0-.2.05-.347.05H18.3a3.775,3.775,0,0,1-1.041-.149h0m-.2.4c.05-.05.149-.05.248-.1.248,0,.5.05.793.05h.793a.629.629,0,0,0,.3-.05c.149,0,.3.05.5.05h.545c.248,0,.5.05.744.05h1.388a2.009,2.009,0,0,1,0,.545c-.05,0-.1.05-.149.05a1.428,1.428,0,0,0-.645.05c-.149,0-.248-.05-.4-.05h-.645a1.687,1.687,0,0,1-.5-.05.3.3,0,0,1-.2-.05c-.5,0-.992-.05-1.488-.05a2.793,2.793,0,0,0-.645,0,3.049,3.049,0,0,1-.694-.05c-.149.1,0-.347.05-.4m-.248.942a.3.3,0,0,1,.2-.05c.1,0,.2.05.3.05H18.1a2.034,2.034,0,0,0,.545-.05c.4,0,.843.05,1.24.05h1.438a3.057,3.057,0,0,1,.992.1c.05.05.05.2.05.248,0,.149,0,.248-.1.3h-.5c-.1,0-.248-.05-.347,0h-1.24c-.149,0-.347-.1-.5,0-.5,0-.992,0-1.488-.05a2.38,2.38,0,0,0-.6,0h-.149a4.885,4.885,0,0,1-.843-.1c0-.05.1-.446.2-.5m-.347.992c.05-.05.1-.05.149-.1.5,0,.942.05,1.438.05h.545c.1,0,.2-.05.347-.05.645,0,1.289.05,1.934.05h.6a1.827,1.827,0,0,1,.744.05c.1.05.05.446.05.6H20.478c-.1,0-.3-.05-.4,0-.793,0-1.587-.05-2.38-.05H16.71a.735.735,0,0,1-.347-.05,1.762,1.762,0,0,1,.1-.5m-.347,1.438c0-.149,0-.446.149-.5a1.859,1.859,0,0,1,.545-.05H17.85c.6.05,1.339.05,1.983.05h1.785c.248,0,.545-.05.694.1a1.529,1.529,0,0,1,.05.5c0,.05-.248,0-.3,0h-.942a1.662,1.662,0,0,0-.5,0,1.348,1.348,0,0,0-.446,0,2.389,2.389,0,0,0-.6,0c-.347,0-.694-.05-1.091-.05h-.3c-.2,0-.545-.1-.694,0H16.164c-.05,0-.05,0-.05-.05m-.149.843c.1-.446.05-.5.545-.5h.3c.149.05.3,0,.446.05.3,0,.6.05.843.05h.446c1.289,0,2.579,0,3.769.05a1.859,1.859,0,0,1-.05.545c0,.1-.446,0-.5.05H19.933a3,3,0,0,0-.942,0c-.1,0-.248-.05-.347,0H17.7c-.3,0-.6-.05-.893-.05h-.248c-.2,0-.4.05-.545-.05-.1-.05-.1-.1-.05-.149m.1.5a6.611,6.611,0,0,1,.992,0h2.678c.149,0,.347.05.5.05h1.983v.645h-.5c-.1,0-.248-.05-.347,0a2,2,0,0,0-.545,0c-.3,0-.545-.05-.843-.05h-.347c-.1,0-.3-.05-.4,0a1.653,1.653,0,0,0-.5,0H17.007c-.1,0-.248-.05-.347,0a1.827,1.827,0,0,1-.744-.05c-.05,0-.05,0-.05-.05,0-.149,0-.545.2-.545m-.149.942h.645c.1.05.248,0,.347,0H19.14c.5,0,.992.05,1.488.05a8.078,8.078,0,0,1,1.587.05c.1.1.1.446.1.645-.1,0-.2.05-.3.05h-.446c-.1,0-.248-.05-.347,0a6,6,0,0,1-.942-.05h-.3a4.537,4.537,0,0,1-.843-.05H17.85a2.38,2.38,0,0,0-.6,0,1.662,1.662,0,0,0-.5,0,5.464,5.464,0,0,1-.893-.1c-.05-.149-.1-.545.05-.6m-.149.942c.893,0,1.785.05,2.628.1h.3c.248,0,.545.05.793.05a.629.629,0,0,0,.3-.05h.793a16.123,16.123,0,0,1,1.636.1c.05.05.05.2.05.248,0,.5-.248.149-.5.3-.744,0-1.438-.05-2.132-.05a2.794,2.794,0,0,0-.645,0H16.462c-.2,0-.4-.05-.645-.05,0-.05-.05-.149-.05-.2a1.339,1.339,0,0,1,0-.446m.05.992a.182.182,0,0,1,.149-.05c.645,0,1.339.05,1.934.05h2.479a.447.447,0,0,1,.248.05h1.091c.1,0,.3-.05.4.05.1.05.05.5.05.645,0,.05-.4,0-.5,0H20.33a1.348,1.348,0,0,0-.446,0,12.957,12.957,0,0,0-1.388,0h-.248a11.207,11.207,0,0,1-1.289-.05,1.348,1.348,0,0,0-.446,0h-.2a.981.981,0,0,1-.545-.1.847.847,0,0,1,.05-.6m0,.992c.149,0,.3-.05.446-.05a4.749,4.749,0,0,0,.843,0h.3a.3.3,0,0,1,.2.05h.545c.149,0,.248-.05.446-.05h.4c.1,0,.2.05.347.05.992,0,1.884,0,2.876.05.05,0,0,0,0,.05,0,.2.05.4-.05.545v.05H20.478a1.348,1.348,0,0,0-.446,0,2.009,2.009,0,0,0-.545,0H16.412c-.1,0-.149-.05-.248-.05a.372.372,0,0,1-.248-.05c-.1-.05-.149-.446-.1-.6m.05,1.091c0-.05.1-.05.149-.05.1,0,.2-.05.3-.05a2.935,2.935,0,0,0,.942-.05,2.009,2.009,0,0,0,.545,0c.2,0,.4.05.6.05H20.28a.844.844,0,0,1,.347.05.844.844,0,0,0,.347-.05.844.844,0,0,1,.347.05,3.729,3.729,0,0,1,.744,0c.05,0,.05.05.05.1a1.348,1.348,0,0,1,0,.446c-.05.1-.694,0-.843.05a3.24,3.24,0,0,0-.694,0,2.794,2.794,0,0,0-.645,0,1.092,1.092,0,0,1-.4-.05h-.942a1.662,1.662,0,0,0-.5,0,3.24,3.24,0,0,0-.694,0c-.248,0-.446-.05-.694-.05h-.446c-.347.1-.4,0-.4-.446m.149,1.14c0-.1-.05-.248.05-.248a1.411,1.411,0,0,1,.645,0h1.736a1.687,1.687,0,0,0,.5-.05h.545a.3.3,0,0,1,.2.05h2.083a1.231,1.231,0,0,1,.446.05c.1,0,.05.5,0,.6-.1,0-.248-.05-.347,0-.1,0-.3-.05-.4,0H20.379a2.793,2.793,0,0,0-.645,0c-.149,0-.347-.05-.446,0-.1,0-.248-.05-.347,0-.4,0-.744-.05-1.14-.05h-.347a2.38,2.38,0,0,0-.6,0,3.374,3.374,0,0,1-.744-.1c-.1-.05-.1-.149-.1-.248m.149.694a12.083,12.083,0,0,1,1.339-.05,3.719,3.719,0,0,0,.744,0c.347,0,.694.05,1.041.05h.5c.2,0,.4.05.645.05.1,0,.2-.05.3-.05h.793a1.651,1.651,0,0,1,.694.05c.05,0,0,0,0,.05v.5c0,.05-.347,0-.446.05h-.793a.967.967,0,0,0-.4.05c-.1,0-.2-.05-.3,0a3.842,3.842,0,0,0-1.091.05c-.2,0-.347-.05-.545-.05-.694,0-1.388,0-2.033-.05-.1,0-.3.05-.4-.05s-.05-.446-.05-.6m.248,1.587a.524.524,0,0,1-.1-.248c0-.05-.05-.2-.05-.3,0-.05,0-.05.05-.05.149-.05.3,0,.446-.05h1.736c.893.05,1.835.05,2.777.05.2,0,.793-.05.893.05.05.05,0,.446,0,.5h-.248a2.793,2.793,0,0,0-.645,0h-.6a2.079,2.079,0,0,0-.793.05h-.4a4.265,4.265,0,0,0-.793-.05c-.2,0-.545-.1-.744,0a4.231,4.231,0,0,0-.793,0,1.318,1.318,0,0,1-.744.05m.248.893a2.1,2.1,0,0,1-.2-.6.967.967,0,0,0,.4-.05,6,6,0,0,1,.942.05c.1,0,.2.05.3.05h.793c.2,0,.446-.05.645-.05a1.86,1.86,0,0,1,.5.05h1.14a3.253,3.253,0,0,1,.992.05c.05.05.05.2.05.248s0,.2-.05.248c-.1.1-.347,0-.446.05H21.47c-.1,0-.3-.05-.4,0h-.893a1.662,1.662,0,0,0-.5,0h-.5a3.24,3.24,0,0,0-.694,0c-.248,0-.446-.05-.645-.05a3.189,3.189,0,0,1-1.19,0m.149.645c0-.05-.05-.149-.05-.2.05-.1.6-.05.694-.1H19.09c.1,0,.2.05.3.05h1.091c.149,0,.248-.05.4-.05h1.24v.05c.05,0,0,0,0,.05a1.859,1.859,0,0,1-.05.545.3.3,0,0,0-.2.05h-1.19a6.323,6.323,0,0,1-.942-.05c-.1,0-.3-.05-.4,0h-.645c-.149,0-.645-.1-.793,0-.149,0-.3-.05-.446-.05a2.223,2.223,0,0,1-.6-.05c0-.05,0-.2-.05-.248m.5,1.289c-.05-.05-.3-.5-.2-.6.2-.149.744,0,1.041-.1.3,0,.6.05.893.05h.645a.629.629,0,0,1,.3.05h1.587a1.529,1.529,0,0,1,.5.05c.1.05.05.446,0,.545-.05.149-1.339-.05-1.587.05-.248,0-.5-.05-.744-.05h-.893c-.149,0-.347-.05-.5-.05h-.3c-.1,0-.248-.05-.347,0h-.2c0,.1-.1.1-.2.05m.4.992c0-.05-.05-.1-.05-.149-.05-.1-.149-.3-.1-.4.05,0,.05-.05.1-.05a3.753,3.753,0,0,1,.744.05h.793a.629.629,0,0,0,.3-.05h.645a7.3,7.3,0,0,1,1.041,0c.3,0,.6.05.942.05a2.223,2.223,0,0,1-.05.6H20.33c-.149,0-.248-.05-.4-.05h-.744a1.653,1.653,0,0,0-.5,0H17.7m.446.942c-.1-.05-.2-.4-.248-.545h2.281c.3,0,.545.05.793.05h.347c.3,0,.545.1.793.1a2.034,2.034,0,0,1-.05.545c0,.05-.1.05-.149.05-.793,0-1.636,0-2.43-.05a.629.629,0,0,1-.3-.05h-.744c-.1-.05-.2,0-.3-.1m.149.347a.173.173,0,0,0,.1-.05c.3.05.6.05.942.1h.248a.447.447,0,0,1,.248.05h.5c.2,0,.347-.05.545-.05.149,0,.3.05.4.05a2.08,2.08,0,0,1,.793.05,1.529,1.529,0,0,1,.05.5c0,.05-.5,0-.6.05H20.33c-.1,0-.2-.05-.3-.05H18.941a.372.372,0,0,1-.248-.05c-.2,0-.347-.4-.4-.6m1.24,1.785c-.1,0-.149,0-.2-.05s-.1-.149-.149-.2a1.423,1.423,0,0,1-.3-.545c.2,0,.347.05.545.05h.446a4.24,4.24,0,0,0,.793,0,1.092,1.092,0,0,0,.4-.05,4.777,4.777,0,0,0,.843,0c.05,0,.1.05.149.05.1.05.05.5.05.6,0,.05-.05.05-.1.05h-.942a1.653,1.653,0,0,0-.5,0,1.827,1.827,0,0,0-.744.05c-.1.05-.248,0-.3.05m.4.843c-.1-.05-.4-.446-.347-.545s.545-.05.694-.1h1.835v.5s-.248.05-.3.05a.629.629,0,0,0-.3.05.844.844,0,0,1-.347-.05.735.735,0,0,0-.347.05h-.2a.372.372,0,0,0-.248.05.684.684,0,0,1-.446,0m.2.347h.2a.967.967,0,0,0,.4-.05,1.859,1.859,0,0,0,.545-.05,2.08,2.08,0,0,1,.793.05,2,2,0,0,1,0,.545c0,.1-.05.1-.1.1h-.248c-.1,0-.4-.05-.446-.05h-.149a2.009,2.009,0,0,1-.545,0,1,1,0,0,1-.446-.545m1.24,1.587a2.056,2.056,0,0,1-.545-.6c0-.05,0-.05.05-.1h.4c.2,0,.744-.05.843.05.1.05.1.5.05.6,0,.05-.05.05-.1.05a3.249,3.249,0,0,1-.694,0m.893.992c-.149,0-.545-.5-.645-.645,0-.05.149-.05.149-.05a.844.844,0,0,1,.347.05C22.264,59.713,22.313,60.159,22.264,60.308Zm30.149,3.124a1.828,1.828,0,0,1-.744-.05h-.05a.838.838,0,0,1,.248-.1,3.772,3.772,0,0,0,1.041-.4c.2.149-.4.5-.5.545M34.363,21.085a2.093,2.093,0,0,0,.6-.149c.347-.05.694-.149.992-.2.2-.05.446,0,.694-.05a6.845,6.845,0,0,0,.992-.149c.149,0,.248-.05.4-.05a1.373,1.373,0,0,0,.446-.05h.942c.2,0,.4.05.6.05.149,0,.3.05.446.05h.645c.1,0,.2.05.3.05h.446c.2.05.347.05.545.1h.2a.258.258,0,0,1,.2.1.629.629,0,0,0,.3.05,10.563,10.563,0,0,1,1.24.149.049.049,0,0,1,.05.05,4.231,4.231,0,0,1-.793,0,.629.629,0,0,0-.3.05c-.2,0-.4-.05-.6-.05h-.2c-.1,0-.248-.05-.347,0a.629.629,0,0,0-.3.05c-.248,0-.645-.1-.843,0-.248,0-.5-.05-.744-.05-.1,0-.3-.05-.4,0-.1,0-.2.05-.347.05a1.067,1.067,0,0,0-.4,0c-.1,0-.149,0-.2.05H37.239c-.1,0-.2-.05-.347-.05H36.1a3.24,3.24,0,0,0-.694,0A3.622,3.622,0,0,1,34.363,21.085Zm-3.124.942c.1,0,.248-.149.347-.149.1-.05.2-.05.248-.1a.376.376,0,0,1,.2-.1,4.188,4.188,0,0,1,.843-.248,2.389,2.389,0,0,1,.6,0H35.3a5.389,5.389,0,0,1,.893.05c.992.05,2.083.05,3.124.05a1.687,1.687,0,0,0,.5-.05h.744c1.19,0,2.43-.05,3.62,0h1.686c.347.05.6.3.942.4a2.124,2.124,0,0,1,.793.248h-.744c-.149,0-.3-.05-.446-.05h-.744a1.653,1.653,0,0,0-.5,0h-.3a1.662,1.662,0,0,0-.5,0,3.164,3.164,0,0,0-.992.05c-.1,0-.248-.05-.347,0-.149,0-.248-.05-.4-.05h-1.19a1.348,1.348,0,0,0-.446,0c-.4,0-.744-.05-1.091-.05h-.793c-.347,0-.694-.05-.992-.05H37.04a2,2,0,0,0-.545,0H33.916a.3.3,0,0,1-.2-.05h-.446c-.1,0-.2-.05-.3,0A4.116,4.116,0,0,1,31.239,22.027Zm-1.686.694c.05-.05.149-.1.2-.149.545-.347,1.289-.149,1.934-.149h2.083c.793,0,1.587.05,2.38,0a1.373,1.373,0,0,0,.446-.05h.843a.447.447,0,0,1,.248.05.629.629,0,0,0,.3-.05,8.778,8.778,0,0,0,1.14.05c.2,0,.4-.05.6-.05.5,0,.992.05,1.488.05.248,0,.5-.05.744-.05h1.19c.2,0,.4-.05.645-.05h2.678c.149,0,.3.05.446.05.2,0,.4-.05.6-.05a5.356,5.356,0,0,0,.893,0,3.758,3.758,0,0,1,.793.3,3.329,3.329,0,0,1,.744.3c.05,0,0,0,0,.05h-.5c-.149,0-.4-.05-.5.05h-.2a4.777,4.777,0,0,0-.843,0h-.3a2.414,2.414,0,0,1-.6-.05c-.149,0-.347-.1-.5-.05a1.653,1.653,0,0,0-.5,0h-.744a4.777,4.777,0,0,0-.843,0h-.694c-.1,0-.2-.05-.248,0a2,2,0,0,0-.545,0,1.662,1.662,0,0,0-.5,0H41.007a5.39,5.39,0,0,1-.893-.05h-.347a3.753,3.753,0,0,1-.744-.05h-.843a.447.447,0,0,1-.248-.05H36.445c-.942,0-1.884-.05-2.826-.1h-.4c-.1,0-.248-.05-.347,0a2.009,2.009,0,0,0-.545,0,9.555,9.555,0,0,1-1.19-.05,3.728,3.728,0,0,0-.744,0,2.38,2.38,0,0,0-.6,0h-.149c-.2,0-.4-.05-.645-.05-.05.4.446.2.545.149m-2.182,1.24c0-.05.149-.1.2-.149a1.037,1.037,0,0,1,.3-.2,2.156,2.156,0,0,1,.347-.2,5.091,5.091,0,0,1,1.24-.05h2.231c.545-.05,1.24,0,1.785,0a5.365,5.365,0,0,1,.893,0c.347,0,.744.1,1.091.1H36.1c.3,0,.6-.1.893-.1.645,0,1.289.05,1.884.05h.248a.629.629,0,0,1,.3.05,1.687,1.687,0,0,0,.5-.05h.6a3.05,3.05,0,0,0,.645-.05c.4,0,.843.05,1.289.05.2,0,.347-.05.545-.05h.545c.1,0,.2.05.347.05a1.687,1.687,0,0,0,.5-.05,3.24,3.24,0,0,0,.694,0c.149,0,.3-.05.5-.05H46.66c.5.05.942,0,1.438.05a2.793,2.793,0,0,0,.645,0c.446,0,.893-.05,1.339-.05a2.827,2.827,0,0,1,.645.05c.1,0,.149.1.2.149a3.7,3.7,0,0,0,.6.347c0,.1-.3.1-.4.149H50.032a.3.3,0,0,1-.2-.05H48.148c-.744,0-1.438-.05-2.182-.05-.2,0-.446-.1-.645,0h-.4a2.8,2.8,0,0,0-.645,0h-.3a2,2,0,0,0-.545,0h-.446a1.348,1.348,0,0,0-.446,0H41.454c-.149,0-.3-.05-.4,0a3.24,3.24,0,0,0-.694,0h-.248a1.662,1.662,0,0,0-.5,0H37.883a2.692,2.692,0,0,0-.893,0h-.149c-.2,0-.347-.05-.545-.05H34.908c-.149,0-.3-.05-.446-.05H33.52a.3.3,0,0,0-.2.05H31.189c-.2,0-.5-.1-.645,0H29.057c-.1,0-.149.05-.248.05-.248,0-.5-.05-.793-.05a.636.636,0,0,1-.645.1h0m-1.388.942a.224.224,0,0,0,.149-.149,4.527,4.527,0,0,1,.645-.4,1.687,1.687,0,0,1,.5-.05c.2,0,.4.05.6.05a8.778,8.778,0,0,1,1.14.05,2.414,2.414,0,0,0,.6-.05h1.041c.248,0,.5.05.793.05.4,0,.793-.05,1.14-.05h2.876a11.645,11.645,0,0,1,1.289.05h1.24c.248,0,.5.05.694.05.347,0,.645-.05.992-.05.248,0,.5.05.793.05h.793a.844.844,0,0,1,.347.05.629.629,0,0,0,.3-.05h.744a10.34,10.34,0,0,0,1.24,0c.248,0,.5-.05.694-.05h3.917c.248,0,.545-.05.793-.05.3,0,.6.05.893.05.248,0,.545-.05.793-.05a1.687,1.687,0,0,0,.5-.05,2.827,2.827,0,0,1,.645.05.871.871,0,0,1,.248.2c.05.05.1.05.149.1l.446.3a.049.049,0,0,1-.05.05h-.446a1.662,1.662,0,0,0-.5,0H49.09a1.653,1.653,0,0,0-.5,0h-.545a1.662,1.662,0,0,0-.5,0,1.058,1.058,0,0,0-.4,0c-.4,0-.793-.05-1.19-.05a1.348,1.348,0,0,0-.446,0H44.33c-.1,0-.248-.05-.347,0a3.587,3.587,0,0,0-1.041.05H40.958a2.793,2.793,0,0,0-.645,0h-.2a3.049,3.049,0,0,1-.694-.05H37.387a7.323,7.323,0,0,1-1.041-.05c-.1,0-.248-.05-.347,0H32.875c-.1,0-.248-.05-.347,0-.446,0-.893-.05-1.339-.05-.1,0-.248-.05-.347,0h-.248c-.545,0-1.14,0-1.686-.05a3.32,3.32,0,0,0-.992,0h-.149c-.3,0-.545-.05-.843-.05a.834.834,0,0,1-.942.149Zm-1.339.992c.05-.05.1-.05.149-.1.149-.1.6-.5.744-.5.347,0,.645.05.992.05a2.414,2.414,0,0,0,.6-.05H28.66c.6,0,1.19.05,1.785.05.149,0,.248-.05.4-.05h.942a1.687,1.687,0,0,1,.5.05,2.034,2.034,0,0,0,.545-.05,2.414,2.414,0,0,1,.6.05c.446,0,.942-.05,1.388-.05h.645c.1,0,.2.05.347.05.248,0,.446-.05.694-.05.347,0,.694.05,1.091.05h1.587a.629.629,0,0,1,.3.05.629.629,0,0,0,.3-.05h.843a.629.629,0,0,0,.3-.05c.149,0,.3.05.446.05H43.09a1.687,1.687,0,0,0,.5-.05h.893a1.092,1.092,0,0,0,.4-.05.844.844,0,0,1,.347.05h.545c.4,0,.793.05,1.19.05.694,0,1.388-.1,2.083-.1a3.249,3.249,0,0,0,.694,0c.149,0,.248-.05.4-.05h1.091c.248,0,.446.05.694.05.149,0,.3-.05.446-.05h.4c.248,0,.545.05.793.05a6.667,6.667,0,0,1,.694.545h-.1c-.149,0-.347-.05-.446,0-.3,0-.694-.1-.942.05h-.5a2.079,2.079,0,0,0-.793.05c-.149,0-.3-.05-.446-.05h-.942a3.24,3.24,0,0,0-.694,0H45.47c-.149,0-.3-.05-.4,0H42.743a4.777,4.777,0,0,0-.843,0,3.24,3.24,0,0,0-.694,0h-.149c-.3,0-.5-.05-.793-.05h-.2c-.2,0-.6-.1-.793,0h-.149c-.2,0-.5-.149-.645-.05H37.387c-.149,0-.5-.1-.6,0H35.7c-.1,0-.248-.05-.347-.05h-1.24a.629.629,0,0,0-.3.05H33.47a.967.967,0,0,0-.645-.05c-.248,0-.545-.05-.843-.05h-.694a7.427,7.427,0,0,1-1.091-.1.447.447,0,0,1-.248-.05H28.908a2.793,2.793,0,0,0-.645,0c-.1,0-.2-.05-.3,0a1.348,1.348,0,0,0-.446,0H26.131A1.847,1.847,0,0,1,24.644,25.9Zm-1.091.942a.329.329,0,0,1,.2-.248c.149-.1.3-.3.446-.347a2.633,2.633,0,0,1,.893-.05h1.14c.347,0,.694-.05,1.041-.05H30.3a.629.629,0,0,1,.3.05h.5c.5,0,.942-.05,1.438-.05.545,0,1.14.05,1.736.05.347,0,.645-.05.992-.05.2,0,.4.05.645.05.545,0,1.14-.05,1.686-.05h1.983a.629.629,0,0,1,.3.05.3.3,0,0,0,.2-.05h.4c.2,0,.347.05.5.05s.3-.05.446-.05h2.479c.4,0,.744-.05,1.14-.05s.744.05,1.14.05a2.414,2.414,0,0,0,.6-.05h2.083c.5,0,1.041-.05,1.537,0,.1,0,.2.05.347.05.4,0,.843.05,1.289.05.2-.05.347-.05.545-.1.149,0,.3-.05.5-.05.347,0,.694.05,1.041.05a2,2,0,0,1,.545,0c.1,0,.149.1.2.149s.3.248.248.3c-.1.1-.4,0-.5.05a3.164,3.164,0,0,0-.992.05H50.974a2.38,2.38,0,0,0-.6,0,6,6,0,0,1-.942-.05H48.4c-.149,0-.4-.1-.5-.05-.149,0-.347-.05-.446,0h-.2c-.1,0-.248-.05-.3,0h-1.19c-.149,0-.3-.05-.4,0h-.149c-.2,0-.4-.05-.645-.05H43.487a2.8,2.8,0,0,0-.645,0h-.893a1.662,1.662,0,0,0-.5,0c-.6,0-1.14-.05-1.686-.05a1.662,1.662,0,0,0-.5,0H37.586a1.662,1.662,0,0,0-.5,0h-.545c-.1,0-.248-.05-.347,0a1.348,1.348,0,0,0-.446,0h-.5a.447.447,0,0,0-.248.05H33.619c-.2,0-.4-.1-.545,0-.5,0-.992-.05-1.488-.05-.149,0-.347-.05-.446,0h-.645c-.1,0-.3-.05-.4,0H27.966a1.653,1.653,0,0,0-.5,0,4.777,4.777,0,0,0-.843,0c-.5,0-.942-.05-1.438-.05h-.446a1.662,1.662,0,0,0-.5,0H23.9c-.149.446-.248.5-.347.446h0m2.926,36.694a.935.935,0,0,1-.744-.3c-.1-.05-.2-.1-.2-.2a9.382,9.382,0,0,0,1.14.248,5.267,5.267,0,0,0,.942.2h-.5a1.373,1.373,0,0,1-.446-.05c-.1.1-.149.1-.2.1m.446.5c-.1-.05-.248-.1-.248-.2.5,0,1.041.05,1.537.05h1.041a12.281,12.281,0,0,1,1.339.149,5.694,5.694,0,0,1,.942.05c.545.1,1.091.149,1.587.248.4.05.793.1,1.14.149,0,.05-.05,0-.05,0,0,.05-.1,0-.1,0-.3,0-.6-.05-.942-.05h-.5c-.3,0-.6-.05-.843-.05h-.6c-.149,0-.347-.05-.446,0-.347,0-.744-.05-1.091-.05-.1,0-.3-.05-.4,0h-.6c-.149,0-.248-.05-.4-.05a4.008,4.008,0,0,1-.793-.05.729.729,0,0,1-.6-.2m2.231,1.339a9.834,9.834,0,0,1-.992-.545v-.05h1.041c.2,0,.347.05.545.05.248,0,.5-.05.744-.05h1.438c.545,0,1.14.05,1.686.05a10.786,10.786,0,0,1,1.289.05h.2c.149,0,.248.05.4.05a4.341,4.341,0,0,1,1.091.5s.1.05.1.1a.173.173,0,0,0-.1.05h-.2c-.248,0-.5-.05-.744-.05-.05,0-.149-.05-.248,0-.1,0-.3-.05-.4,0a4.811,4.811,0,0,1-.843-.05h-1.14c-.149,0-.4-.1-.545-.05a.967.967,0,0,0-.4.05,2,2,0,0,0-.545,0c-.6,0-1.19,0-1.736-.05a2.827,2.827,0,0,1-.645-.05m3.322,1.041h-.347a1.448,1.448,0,0,1-.446-.1.7.7,0,0,0-.3-.1c-.149-.05-.3-.05-.446-.1-.2-.05-.347-.1-.5-.149-.1-.05-.2-.05-.248-.1h.248c.3,0,.645.05.992.05a3.049,3.049,0,0,0,.694-.05,6.322,6.322,0,0,1,.992.05c.149,0,.3.05.446.05.248,0,.5-.05.744-.05.347,0,.694.05,1.091.05h1.24a2.39,2.39,0,0,1,.6,0,1.371,1.371,0,0,1,.645.545.069.069,0,0,1,0,.1c-.1.05-.4,0-.5.05a1.662,1.662,0,0,0-.5,0H35.8c-.149,0-.3-.05-.4,0-.347,0-.694-.05-1.041-.05H32.925a.538.538,0,0,0-.446-.2m5.95,1.19c0,.05-.1,0-.149,0-.3-.05-.545-.1-.843-.149h-.4a2.109,2.109,0,0,1-.545-.1H36c-.893-.149-1.835-.248-2.727-.446-.149-.05-.5-.1-.545-.2a5.509,5.509,0,0,0,1.289.05c.347,0,.744.05,1.091.05a.844.844,0,0,1,.347.05H35.8c.149,0,.3.05.446.05h.347c.149.05.248.05.4.1a4.014,4.014,0,0,1,1.091,0c.2.05.347.446.347.6Zm.545-.992c-.05,0-.05-.05-.1-.1-.1-.149-.149-.248-.248-.4-.149-.2-.347-.4-.5-.6a5.918,5.918,0,0,0-1.785-1.19c-.149-.05-.248-.1-.4-.149s-.3-.149-.446-.2-.3-.05-.446-.1a1.467,1.467,0,0,0-.5-.1,7.251,7.251,0,0,1-.992-.248,6.775,6.775,0,0,0-.942-.1,3.753,3.753,0,0,1-.744-.05c-1.14-.1-2.331-.248-3.421-.4a8.358,8.358,0,0,1-2.231-.446,2.8,2.8,0,0,1-.6-.2,5.817,5.817,0,0,1-.545-.248c-.149-.05-.248-.1-.4-.149a.5.5,0,0,1-.248-.2c-.05,0-.1-.05-.149-.05A6.8,6.8,0,0,1,23.5,60.8a1.63,1.63,0,0,1-.347-.793,3.417,3.417,0,0,0-.149-.4,8.922,8.922,0,0,1-.149-2.033,1.092,1.092,0,0,0-.05-.4c0-.545.05-1.041.05-1.587V53.664c0-.347.05-.694.05-.992,0-1.388,0-2.826.05-4.264a2.414,2.414,0,0,0-.05-.6V46.87c.05-.347.05-.645.1-.942v-.744a2.009,2.009,0,0,0,0-.545c0-.149-.05-.3-.05-.446v-1.24a1.662,1.662,0,0,0,0-.5c0-.2-.05-.4-.05-.6,0-.248.05-.5.05-.694v-.645c0-.5,0-.992.05-1.488v-.3a2.827,2.827,0,0,0-.05-.645c0-.2.05-.347.05-.545,0-.893,0-1.835.05-2.678v-.893c0-.2-.05-.4-.05-.645V30.606a4.231,4.231,0,0,0,0-.793V28.226c0-.149-.05-.4.05-.545,0-.05.05-.05.1-.05a3.587,3.587,0,0,1,1.041-.05,10.34,10.34,0,0,0,1.24,0h1.14a3.274,3.274,0,0,0,.694-.05c.446,0,.843.05,1.24.05h2.033a2.827,2.827,0,0,0,.645-.05c.2,0,.347.05.545.05h.694a8.034,8.034,0,0,1,1.091.05c.149,0,.347.05.5.05.5,0,1.041-.05,1.537-.05a6.322,6.322,0,0,1,.992.05c.3,0,.545-.05.843-.05h1.24c.2,0,.446.05.645.05a1.687,1.687,0,0,0,.5-.05c.347,0,.694.05.992.05a1.86,1.86,0,0,0,.5-.05h2.727a2.414,2.414,0,0,0,.6-.05h1.488a8.744,8.744,0,0,0,1.14,0c.149,0,.3.05.446.05h.5c.248,0,.6.05.843.05.2,0,.347-.05.545-.05a1.092,1.092,0,0,1,.4.05h.6c.149,0,.3.05.4.05h1.686a7.3,7.3,0,0,1,1.041,0,1.687,1.687,0,0,0,.5-.05h.694c.1.1.05.347.05.5a13.91,13.91,0,0,0,0,1.438V31.5a2.827,2.827,0,0,1-.05.645c0,.3.05.545.05.843,0,.1-.05.2-.05.3,0,.2.05.347.05.545a2.034,2.034,0,0,1-.05.545v.694c0,.149-.05.347-.05.5,0,.3.05.545.05.843a.629.629,0,0,1-.05.3,3.249,3.249,0,0,0,0,.694c0,.4.05.843.05,1.24a.447.447,0,0,1-.05.248v.545c0,.2-.05.446-.05.645,0,.149.05.3.05.5a.447.447,0,0,1-.05.248v.347c0,.446-.05.843-.05,1.289V43.1a.447.447,0,0,0,.05.248v.744a1.86,1.86,0,0,1-.05.5c0,.2.05.446.05.645,0,.645-.05,1.24-.05,1.835,0,.248.05.5.05.744,0,.149-.05.248-.05.4V49.1c0,.149-.05.3-.05.5v1.785c0,.4-.05.843-.05,1.289a2.827,2.827,0,0,0,.05.645v3.669a.447.447,0,0,0,.05.248c0,.248-.05.545-.05.793a3.24,3.24,0,0,1,0,.694c-.05.149-.05.3-.1.446,0,.149-.05.3-.05.446a3.523,3.523,0,0,1-.4.893c-.1.2-.347.3-.5.446-.1.1-.2.149-.3.248a2.67,2.67,0,0,1-.6.446c-.149.05-.248.1-.4.149-.248.1-.545.248-.793.347s-.5.149-.793.248c-.05,0-.149.05-.2.05a.692.692,0,0,0-.446.149.844.844,0,0,0-.347.05,1.184,1.184,0,0,0-.446.1c-.05,0-.1.05-.149.05-.1,0-.149,0-.2.05a1.178,1.178,0,0,0-.6.149c-.149,0-.3-.05-.4,0-.1,0-.149,0-.2.05a.844.844,0,0,0-.347.05h-.149a.372.372,0,0,0-.248.05.447.447,0,0,0-.248.05c-.149,0-.4-.05-.5.05h-.149c-.149,0-.347-.05-.446,0h-.4a1.348,1.348,0,0,0-.446,0h-.694a.372.372,0,0,0-.248.05h-.149a.629.629,0,0,0-.3.05.372.372,0,0,0-.248.05,6454.287,6454.287,0,0,1-.4.1h-.149a.919.919,0,0,0-.347.1.3.3,0,0,0-.2.05,1.215,1.215,0,0,0-.6.2l-.446.149a1.288,1.288,0,0,0-.793.446,6.19,6.19,0,0,0-.6.4,16.42,16.42,0,0,1-.694,1.785m6.1.248a3.263,3.263,0,0,0-.744.2c-.149.05-.347,0-.5.1a1.614,1.614,0,0,0-.694.2.182.182,0,0,0-.149.05,1.092,1.092,0,0,0-.4.05,1.762,1.762,0,0,0-.5.1.967.967,0,0,0-.4.05,2.389,2.389,0,0,0-.6,0h-1.14c0-.2.1-.545.3-.6a6.5,6.5,0,0,1,1.388,0,9.554,9.554,0,0,0,1.19-.05,1.373,1.373,0,0,0,.446-.05h.893A5.39,5.39,0,0,1,45.073,66.854Zm2.777-.942c0,.05-.05.05-.1.05-.2.1-.4.149-.6.248a2.418,2.418,0,0,1-.347.149l-.446.149a2.8,2.8,0,0,0-.645,0h-.4c-.1,0-.2-.05-.3,0H43.982c-.1,0-.3-.1-.4,0h-.347c-.149,0-.347-.05-.446,0H42.1a4.241,4.241,0,0,0-.793,0h-.347c-.2,0-.4-.05-.6-.05a.936.936,0,0,1,.5-.645,2.009,2.009,0,0,1,.545,0,11.333,11.333,0,0,1,1.835,0c.3,0,.6-.05.942-.05h.942c.2.05.545,0,.744.05.3,0,.6.05.942.05a1.373,1.373,0,0,0,.446-.05c.149.05.4.05.6.1Zm2.281-1.091c-.1,0-.248.149-.347.2-.248.1-.5.248-.744.347-.149.05-.3.149-.446.2a5.977,5.977,0,0,1-.942,0c-.149,0-.248.05-.347.05a1.339,1.339,0,0,0-.446,0h-.446c-.2,0-.4-.1-.545,0h-.942a1.662,1.662,0,0,0-.5,0h-.843c-.2,0-.694-.1-.843,0-.5,0-.942-.1-1.438-.1v-.05c.05,0,.3-.2.347-.2a2.931,2.931,0,0,1,.694-.3,1.448,1.448,0,0,1,.446-.1h1.14c.3,0,.645-.05.942-.05.793,0,1.587.05,2.38,0h.793a.967.967,0,0,0,.4-.05,10.1,10.1,0,0,1,1.686.05Zm.347-.347H48.892c-.2,0-.545-.1-.744,0-.2,0-.5-.05-.645.05a1.653,1.653,0,0,0-.5,0c-.3,0-.6-.05-.893-.05H44.776v-.05a2.62,2.62,0,0,1,.645-.05c.347,0,.645-.05.992-.05.446-.05.942-.1,1.388-.149a2.927,2.927,0,0,0,.694-.1c.248-.05.446-.1.694-.149.248,0,.446-.05.694-.05.2,0,.347-.05.545-.05h.446a.629.629,0,0,0,.3-.05h.645v.05h-.05a1.321,1.321,0,0,1-.5.3c-.1.05-.2.149-.3.2s-.2.05-.3.1c-.1,0-.149,0-.2.05" transform="translate(-6.481 -6.503)" fill="#231f20"/>
    <path id="Path_9985" data-name="Path 9985" d="M60.793,61.016c.2-.149.446-.248.645-.4a5.91,5.91,0,0,1,.992-.4c.248-.05.5-.149.744-.2.1-.05.2-.05.3-.1.1-.1.2-.3,0-.347-.1-.05-.2,0-.248,0a.919.919,0,0,1-.347.1.838.838,0,0,1-.248.1c-.248.1-.5.149-.744.248a4.955,4.955,0,0,0-.694.4.871.871,0,0,0-.248.2c-.2.1-.446.248-.446.5-.05.1.248-.05.3-.1m-4.512-.893a9.849,9.849,0,0,1,2.132.744c.149.05.248.149.4.2.1.05.2.2.347.2a.182.182,0,0,0,.149-.05c.1-.149-.645-.6-.793-.694-.2-.1-.4-.2-.645-.3a.376.376,0,0,0-.2-.1l-.446-.149c-.149-.05-.347-.149-.545-.2H56.43a2.607,2.607,0,0,0-.843-.2.232.232,0,0,0,0,.4,3.475,3.475,0,0,0,.694.149" transform="translate(-27.11 -26.797)" fill="#231f20"/>
    <path id="Path_9986" data-name="Path 9986" d="M63.44,48.232V47.29a.629.629,0,0,0-.05-.3c0-.248.05-.446.05-.694a2.034,2.034,0,0,0-.05-.545c0-1.388-.05-2.727,0-4.066V37.026c0-.05-.2,0-.248,0h-1.19c-.248,0-.5-.05-.793-.05h-.248a.629.629,0,0,0-.3.05c-.149,0-.3-.05-.446-.05H58.679a2.38,2.38,0,0,0-.6,0h-.793c-.2,0-.5-.1-.645,0h-.694c-.3,0-.545-.05-.843-.05-.2.05-.545-.05-.744.05H53.026c-.2,0-.347-.05-.5-.05H51.192a2.009,2.009,0,0,0-.545,0H50.3c-.248,0-.645-.149-.893-.05h-.149a.629.629,0,0,0-.3.05H46.58c-.1,0-.2-.05-.248,0h-.5a2.7,2.7,0,0,0-.893,0H44.5c-.1,0-.2-.05-.3,0h-.4c-.248,0-.5-.05-.744-.05h-.248a1.653,1.653,0,0,0-.5,0H40.283c-.2,0-.6-.1-.744,0a3.24,3.24,0,0,0-.694,0c-.4,0-.793-.05-1.19-.05a1.662,1.662,0,0,0-.5,0h-.248a1.662,1.662,0,0,0-.5,0c-.149,0-.347-.05-.446,0-.5,0-1.041-.05-1.587-.05a1.653,1.653,0,0,0-.5,0,4.231,4.231,0,0,0-.793,0c-.1,0-.3-.05-.4.05s-.05.694-.05.843v1.438c0,.545-.05,1.091-.05,1.636,0,.149-.05.248-.05.4s.05.3.05.446-.05.3-.05.4v.843c0,.5-.05.992-.05,1.537v.793c0,.1-.05.248-.05.347v3.719c0,.2-.05.347-.05.545v.843c0,.545-.05,1.14,0,1.686a2.414,2.414,0,0,0,.05.6c0,.248-.05.5-.05.793v3.074c0,.248-.05.446-.05.744v1.14c0,.942-.05,1.785-.05,2.727,0,.446-.05.793-.05,1.19v.545a.3.3,0,0,0,.05.2.3.3,0,0,1-.05.2,2.827,2.827,0,0,1-.05.645v.793c0,.1.05.2.05.347s-.05.2-.05.347.05.248.05.4a6.005,6.005,0,0,0,.5,3.025,3.155,3.155,0,0,0,1.587,1.19,5.4,5.4,0,0,0,1.24.5c.347.1.645.1.992.2.248.05.545.1.793.149.248,0,.5.05.793.05.545.05,1.091.149,1.636.248.248,0,.545.05.793.05.1,0,.248.05.347.05h.645c.2,0,.446.05.645.05h.347c.1,0,.2.05.3.05.3.05.545.1.843.149.1.05.2.05.248.1a2.416,2.416,0,0,1,.545.2c.248.1.545.2.793.3l.6.3c.1.05.2.149.3.2a4.527,4.527,0,0,1,.645.4c.248.2.4.446.645.645a.5.5,0,0,0,.2.248c0,.05,0,0,.05,0,0-.05.1-.1.149-.149s.1-.149.149-.2A4.71,4.71,0,0,1,49.9,72.232a.717.717,0,0,1,.347-.1c.149-.05.248-.1.4-.149a4.643,4.643,0,0,1,.793-.2c.5-.1.992-.248,1.537-.347a1.092,1.092,0,0,0,.4-.05,2.489,2.489,0,0,1,.6-.1,4.008,4.008,0,0,0,.793-.05,6.721,6.721,0,0,1,.992-.1c.3,0,.6-.05.893-.05.248-.05.5-.1.793-.149h.248a10.157,10.157,0,0,0,1.19-.248c.149-.05.248-.05.4-.1.347-.1.744-.248,1.091-.347l.893-.3a4.954,4.954,0,0,0,.694-.4,3.34,3.34,0,0,0,1.091-.942,3.886,3.886,0,0,0,.248-.694v-.3a6.982,6.982,0,0,0,.05-1.438V64.844a.3.3,0,0,0-.05-.2v-.4c0-.149.05-.248.05-.347,0-.149-.05-.248-.05-.4s.05-.3.05-.446c0-.545,0-1.14.05-1.686V59.488c.05-1.339,0-2.777.05-4.116v-.6c0-.1.05-.248.05-.347a.447.447,0,0,0-.05-.248c0-.1.05-.248.05-.347,0-.248-.05-.446-.05-.694,0-.149.05-.3.05-.446v-.248a.447.447,0,0,1,.05-.248.629.629,0,0,0-.05-.3.629.629,0,0,1,.05-.3c0-.1-.05-.2-.05-.3V49.521c0-.149.05-.248.05-.347,0-.149-.05-.2-.05-.347a.3.3,0,0,1,.05-.2c-.1-.05-.1-.248-.1-.4M52.481,38.216c.05-.05.149-.05.2-.149.05-.05.1-.149.149-.2a3.208,3.208,0,0,1,.4-.446l.149-.149a.424.424,0,0,1,.347,0,3.049,3.049,0,0,0,.694-.05.629.629,0,0,0,.3-.05h.5c.2,0,.4.05.6.05s.347-.05.5-.05a.182.182,0,0,1,.149.05,2.828,2.828,0,0,0,.645-.05h0v.05a5.273,5.273,0,0,1-.744.744c-.446.446-.942.893-1.388,1.339-.1.1-.248.2-.347.3-.4.4-.793.893-1.19,1.289l-.446.446c-.1.05-.149.149-.248.2-.1.1-.2.248-.3.347l-.793.793c-.149.149-.248.3-.4.446l-.843.843L48.96,45.406a2.132,2.132,0,0,1-.5.446v-.645c0-.1.05-.149.05-.248,0-.149-.05-.248.05-.4.05-.1.149-.1.2-.2.149-.1.2-.3.347-.4a1.776,1.776,0,0,1,.545-.2c.1-.05.2-.149.3-.2a2.224,2.224,0,0,0,.645-.5l.149-.3c.05-.1.1-.149.149-.248a.844.844,0,0,0,.05-.347,1.455,1.455,0,0,0,.149-.5c0-.149-.05-.347-.05-.5a1.1,1.1,0,0,0-.248-.545c-.05-.05-.1-.149-.149-.2-.05,0,0-.05,0-.1.05-.05.05-.1.1-.149a5.612,5.612,0,0,1,.5-.645,1.037,1.037,0,0,0,.2-.3c.1-.1.248-.2.347-.3.05-.05.1-.149.149-.2a.66.66,0,0,1,.149-.248c.05-.05.149-.1.2-.149a.685.685,0,0,0,.2-.149M53.969,51.6c0,.149-.05.248-.05.4a.447.447,0,0,0,.05.248v.645c0,.3-.05.545-.05.843,0,.248.05.5.05.793,0,.2-.05.347-.05.5s.05.347.05.5a4.241,4.241,0,0,1,0,.793,2.62,2.62,0,0,1-.05.645H53.77V54.232c0-.248-.05-.5-.05-.744,0-.1.05-.2.05-.3a4.786,4.786,0,0,0,0-.843c0-.1-.05-.149-.149-.248,0,.05-.05.05-.1.1a.967.967,0,0,0-.05.4,3.753,3.753,0,0,0,.05.744c0,.149.05.3.05.446,0,.1-.05.248-.05.347,0,.149-.05.347-.05.5v.5a8.034,8.034,0,0,1-.05,1.091c-.1,0-.1-.149-.149-.2-.05-.1,0-.248,0-.347V54.331a4.231,4.231,0,0,0,0-.793c0-.05-.05-.2-.1-.2s-.05,0-.1.05a1.651,1.651,0,0,0-.05.694c0,.347-.05.694-.05,1.041a2.414,2.414,0,0,1-.05.6c-.05,0-.05-.1-.05-.149V53.687c0-.248.05-.446.05-.645V52.3c0-1.24-.05-2.479.05-3.669a2.414,2.414,0,0,0-.05-.6v-.545a1.092,1.092,0,0,1,.05-.4,1.687,1.687,0,0,1,.05.5,2.192,2.192,0,0,0,.1.992h.149c0-.05.05-.149.05-.2,0-.347.05-.694.05-1.041h.05a.182.182,0,0,0,.05.149.447.447,0,0,0,.05.248c0,.5-.05,1.041-.05,1.537a.629.629,0,0,0,.05.3c0,.149-.05.248-.05.4,0,.1.1.149.2.1v-.5c0-.149.1-.3.1-.446a12.085,12.085,0,0,1,.05-1.339h.05c.05,0,0,.2.05.248v.347c0,.2.05.4.05.6a7.323,7.323,0,0,1-.05,1.041v1.041a1.542,1.542,0,0,1,.05.545M52.431,66.182h-1.19a1.662,1.662,0,0,0-.5,0h-.4a8.777,8.777,0,0,1-1.14-.05c-.2,0-.4-.1-.6,0H47.572a2.794,2.794,0,0,0-.645,0H44.993c-.3,0-.545.05-.744-.2,0-.05-.05-.1,0-.1a9.24,9.24,0,0,1,2.033,0c.446,0,.793-.05,1.24-.05.545,0,1.14.05,1.736.05h2.926c.05,0,.05-.2.05-.248V64.249a5.1,5.1,0,0,1,.05-.893c.347.2.3.645.3.992v.793c0,.149-.05.248-.05.4a2.512,2.512,0,0,1-.1.645M50.25,63.455a9.028,9.028,0,0,1,.694.942c0,.05-.05.05-.1.05H49.307a.376.376,0,0,1,.1-.2,4.317,4.317,0,0,0,.5-.942c0-.05-.05-.1-.1-.149a2.4,2.4,0,0,0-.843,0c-.149,0-.5-.1-.645,0-.3,0-1.24-.149-1.388.1-.05.05,0,.149.05.2a2.982,2.982,0,0,0,.446.645c.1.149.149.248.248.4h-.05c-.6,0-1.19-.05-1.785-.05V64.4s.893-1.041.992-1.14v-.05c-.1,0-.2-.05-.3-.05a2.034,2.034,0,0,1-.545-.05c-.5,0-1.041,0-1.537-.05,0-.05.744-.744.843-.843l1.934-1.934.694-.694a1.082,1.082,0,0,1,.248-.2v-.05c.149.1.248.248.4.347l.6.6.347.347c.545.6,1.14,1.14,1.686,1.686a4.761,4.761,0,0,1,.694.744h-.893a1.827,1.827,0,0,0-.744.05.233.233,0,0,0,0,.347m-1.835.992a5.946,5.946,0,0,1,.545-.843c.05-.05.1-.1.149-.1h.347a2.463,2.463,0,0,1-.645.942Zm-3.273-.1c-.1.05-.3,0-.446,0,0-.2.793-.744.942-.942h.347c0,.2-.694.893-.843.942m6.645-6.942c-.149,0-.4-.05-.5.05-.149,0-.347-.1-.5,0h-.149c-.149,0-.4-.05-.5.05a.3.3,0,0,0-.2.05,2,2,0,0,0-.545,0h-.4c-.1,0-.248,0-.3.1-.05,0,0,.1,0,.149a.682.682,0,0,1-.645.744.754.754,0,0,1-.645-.5c0-.1,0-.248-.05-.3a.182.182,0,0,0-.149-.05h-.545c-.347,0-.645-.05-1.041-.05H44.547a.967.967,0,0,0-.4.05c-.4,0-.744-.05-1.14-.05a1.348,1.348,0,0,0-.446,0c-.1,0-.248,0-.3-.05,0-.1.05-.149.1-.248a.99.99,0,0,1,.4-.5,2.157,2.157,0,0,1,.347-.3,2.965,2.965,0,0,1,2.083-.2c.149.05.248.05.4.1a4.182,4.182,0,0,1,1.19.347,7.288,7.288,0,0,1,.645.5.258.258,0,0,0,.2.1c.1.1.2.248.347.248.2,0,.347-.248.5-.347s.347-.248.5-.347a7.588,7.588,0,0,1,1.587-.645l.6-.149a.844.844,0,0,0,.347-.05h.5a1.935,1.935,0,0,1,.793.347,2.157,2.157,0,0,1,.3.347.92.92,0,0,1,.347.6c0,.05-.149,0-.2,0H51.787m-9.868-2.678c0-.2.05-.4.05-.6s-.05-.446-.05-.645c0-.347.05-.744.05-1.091a2.828,2.828,0,0,0-.05-.645v-.5c0-.149-.05-.347-.05-.5,0-.248.1-.5.1-.793a1.373,1.373,0,0,0-.05-.446v-.248c0-.3.05-.645.05-.942a3.728,3.728,0,0,1,0-.744,3.043,3.043,0,0,1,.843-.942,2.009,2.009,0,0,1,0,.545c0,.2-.05.446-.05.645a1.373,1.373,0,0,0,.05.446v.793a.844.844,0,0,1-.05.347v.446a9.531,9.531,0,0,0,0,1.19c0,.446-.05.893-.05,1.289,0,.149.05.3.05.5v.942a1.373,1.373,0,0,1-.05.446v.744a3.939,3.939,0,0,1-.05,1.091c-.05.1-.149.149-.149.2-.05.1-.149.2-.2.3l-.2.2c-.05.149-.149.248-.2.4,0-.4-.05-.843-.05-1.24,0-.248.05-.5.05-.744a1.348,1.348,0,0,0,0-.446m1.289-1.488c0-.2.05-.4.05-.545V51.356a2.62,2.62,0,0,1-.05-.645c0-.3.05-.6.05-.893V48.778c0-.6.05-1.19.05-1.785,0-.149-.05-.545.05-.645.05-.1.248-.1.347-.149h1.041a3.828,3.828,0,0,1,.744.1c.149.05.3.05.446.1s.248.1.4.149a2.7,2.7,0,0,1,1.289.793,1.377,1.377,0,0,1,.149.893,27.82,27.82,0,0,1,0,2.876c0,.6,0,1.19-.05,1.835v.645c0,.5-.05.992-.05,1.488a6.322,6.322,0,0,1-.05.992,3.293,3.293,0,0,1-.149.744,5.03,5.03,0,0,1-.645-.446,3.772,3.772,0,0,0-1.041-.4c-.248-.05-.5-.05-.744-.1a2.2,2.2,0,0,0-.992-.05H43.9a45179.514,45179.514,0,0,0-.4.1h-.248c0-.2.05-.4.05-.6,0-.149-.05-.3-.05-.5s.05-.347.05-.545a3.38,3.38,0,0,1-.1-1.041m4.463-10.364v-.248l.149-.149a.3.3,0,0,1,.2.05,4.675,4.675,0,0,1,.5.5c.05.149-.347.4-.5.446-.05,0-.1-.05-.149-.05-.05-.05-.1-.05-.149-.1-.1-.149-.05-.3-.05-.446m-.248-.4c-.1.05-.2.2-.3.2a.258.258,0,0,1-.2-.1.681.681,0,0,1-.2-.6c.05-.05.05-.1.1-.2a.74.74,0,0,1,.149-.347c.2.1.694.5.645.744,0,.149-.149.248-.2.3m.1,1.19c0,.05-.1,0-.149,0-.347-.05-.694-.149-.4-.545a.182.182,0,0,1,.149.05c.1.05.1.149.149.2.1.149.2.2.248.3m-1.488-2.727s.149-.2.2-.2c.248.2.5.5.2.793-.05.05-.149.149-.2.149-.248.05-.149-.248-.149-.4s-.05-.248-.05-.347m.5-.4h0c.05-.05.1-.1.149-.1a2.455,2.455,0,0,0,.645-.2c.05,0,.2,0,.2.1.1.2-.446.6-.6.545-.2-.05-.3-.248-.4-.347m-.347,1.785a.173.173,0,0,1,.1.05c.1.05.5.4.5.545,0,.1-.3.347-.4.347s-.1-.05-.149-.149a1.446,1.446,0,0,1-.05-.793m2.777-.545h.2a.5.5,0,0,1,.3.545.6.6,0,0,1-.248.248.379.379,0,0,1-.248.1c-.1,0-.05-.3-.05-.347.05-.1.149-.149.149-.248s-.1-.149-.1-.3m.3-.893a.422.422,0,0,1-.248.149c-.149,0-.2-.2-.3-.248-.1-.1-.3-.149-.248-.3q0-.074.149-.149c.149.05.248.1.4.149l.446.149c.05,0,.05.05.05.1a.453.453,0,0,1-.248.149m-.3,2.678c-.05.149-.4.2-.5.149-.2-.1.149-.347.248-.4.1.05.3.149.248.248m3.57,3.521c0,.1.05.248.05.347v1.686c0,.5-.05,1.091-.05,1.587a1.092,1.092,0,0,0,.05.4V52c0,.149-.05.3-.05.446v.793a.844.844,0,0,1-.05.347v.694c0,.2-.05.347-.05.545a7.3,7.3,0,0,1,0,1.041c-.1-.05-.248-.05-.347-.1a2.24,2.24,0,0,0-.992-.05h-.3a1.762,1.762,0,0,0-.5.1,1.614,1.614,0,0,0-.694.2,3.332,3.332,0,0,0-.6.3c-.2.1-.446.3-.694.4,0,.05-.05-.05-.1-.05a4.243,4.243,0,0,1-.2-1.636c0-.2-.05-.4-.05-.545v-.2a.629.629,0,0,0-.05-.3v-1.19a10.33,10.33,0,0,1,0-1.24,5.1,5.1,0,0,1,.05-.843.844.844,0,0,1,.05-.347v-.893c0-.2.05-.4.05-.6a8.4,8.4,0,0,1,.05-1.14.534.534,0,0,1,.1-.4,1.781,1.781,0,0,1,.5-.347,8.285,8.285,0,0,1,2.231-.645c.149-.05.4,0,.545-.05.149,0,.3.05.446.05a.844.844,0,0,1,.347.05c.05,0,.05.149.05.2a.475.475,0,0,1,.2.5M50.4,39.654h0l-.05-.2c.05-.2.2-.3.347-.5.2.248-.149.545-.3.694m.149,2.43a.515.515,0,0,1-.2.4c0,.05-.1,0-.1,0C50.25,42.282,50.448,42.183,50.547,42.083Zm-.4-.3a.258.258,0,0,1-.2.1c-.1,0-.1-.05-.149-.1v-.793c0-.1.149-.149.2-.2.149.05.149.149.2.3.149.248.248.5-.05.694m-.248,1.24c0,.1-.3.3-.347.2-.1-.1.05-.248.1-.3a.273.273,0,0,1,.248.1m1.587-5.157a1.037,1.037,0,0,0,.2-.3l.2-.2c.149,0,.3.05.446.05v.05c-.248,0-.843.744-.992.942a.729.729,0,0,1-.248.3c-.05.05-.149,0-.2-.05-.149-.1-.05-.248,0-.347a.376.376,0,0,1,.1-.2c.05-.05.1-.05.2-.1a.424.424,0,0,0,.3-.149m-1.438.5c.05-.1.05-.248.1-.347.05-.149.248-.149.347-.248s.1-.2.2-.3.2-.1.3-.149h.248c0,.1-.149.2-.2.3s-.149.248-.2.347c-.1.1-.149.248-.248.347a1.084,1.084,0,0,1-.149.248c-.05.05-.1.1-.149.1l-.149.149L50,38.959c-.1.1-.1.248-.2.347a.476.476,0,0,1-.446.1h-.05a3.336,3.336,0,0,1,.347-.545c.05-.05.149-.05.2-.1a.3.3,0,0,0,.05-.2.684.684,0,0,0,.149-.2m-1.636.5c0-.1.05-.2.05-.3,0-.149-.1-.3-.05-.446.05-.1.149-.2.149-.3.05-.149,0-.248.1-.347s.645,0,.843-.1h.347v.05c-.05,0-.05,0-.05.05a3.838,3.838,0,0,0-.347.793l-.149.3-.149.3a1.26,1.26,0,0,1-.645.6c-.05,0,0-.2-.05-.248a.968.968,0,0,1-.05-.347m.248,2.479c-.05.149-.2.248-.3.347s-.248.248-.4.248-.4-.694-.347-.843a1.852,1.852,0,0,1,.3-.347h.248c.1.1.545.446.5.6m-1.934-3.967c.1-.1.4-.05.5-.05a2.828,2.828,0,0,0,.645.05v.3c0,.05.05.149.05.2,0,.1-.05.149-.05.248,0,.347-.05.694-.05.992a3.05,3.05,0,0,0,.05.645c-.3,0-.6-.843-.694-1.041a1.315,1.315,0,0,0-.248-.3c-.149-.248-.446-.793-.2-1.041m-1.736.149c.05-.149.4-.149.5-.248a.967.967,0,0,1,.4.05c.3.149.4.6.545.893.1.2.2.347.3.545l.149.3a.629.629,0,0,1,.05.3c0,.1,0,.248-.05.248-.05.05-.149,0-.2,0A11.478,11.478,0,0,1,44.993,37.521Zm-.843-.2c.149.05.248.05.347.2a5.271,5.271,0,0,1,.446.545,1.037,1.037,0,0,0,.2.3c.1.1.2.248.3.347s.2.248.3.347c.05.05.05.1.1.149s.149.1.2.2a1.134,1.134,0,0,1,.347.5.049.049,0,0,0-.05.05.919.919,0,0,1-.347-.1,3.208,3.208,0,0,1-.4-.446c-.1-.1-.2-.1-.248-.248a2.669,2.669,0,0,0-.446-.6c-.1-.1-.248-.1-.347-.2a2.768,2.768,0,0,1-.248-.4c-.1-.149-.248-.248-.347-.4v-.05c-.05-.1.1-.149.2-.2m-4.116-.05a2.793,2.793,0,0,0,.645,0c.149.05.347,0,.5.05h.942c.1,0,.149.05.248.05.149,0,.347-.1.5-.05.2.05.347.3.5.446l.694.694c.149.149.3.347.446.5.2.2.4.347.6.545.1.1.2.248.3.347.05.05.149.1.2.149a1.193,1.193,0,0,1,.3.4c-.05,0-.149.149-.2.2a1.749,1.749,0,0,0-.4.645c0,.1-.05.2-.05.3a1.529,1.529,0,0,0-.05.5c.05.1.05.248.1.347s.1.248.149.347a1.485,1.485,0,0,0,.2.4c.05.1.2.1.248.2.1.05.1.149.2.248.1.05.149.1.248.1a.8.8,0,0,0,.347.2c.149.1.347.149.446.3.1.1.149.248.248.347s.2.149.248.248a.539.539,0,0,1,.05.248v.248a2.9,2.9,0,0,1,.1.645c-.149,0-.545-.446-.645-.545-.248-.248-.545-.5-.793-.744l-.6-.6c-.4-.4-.793-.793-1.19-1.14a7.626,7.626,0,0,1-.6-.645c-.1-.1-.149-.2-.248-.3-.694-.694-1.388-1.388-2.083-2.033-.2-.2-.347-.4-.545-.6l-1.19-1.19c-.2-.2-.645-.446-.694-.744a2.32,2.32,0,0,1,.843-.1m5.7,4.81c-.2.05-.149-.347-.149-.5.149.05.446.446.149.5M35.522,58.4c-.3.3-.545.645-.893.942l-1.339,1.339a4.675,4.675,0,0,0-.5.5c0,.05-.05-.1-.05-.1v-.446a13.935,13.935,0,0,1,.05-1.438V57.654c0-.347.05-.744.05-1.14V53.34c0-.149.05-.3.05-.446V51.9c0-.248.05-.5.05-.744,0-.545-.05-1.091,0-1.587,0-.248.05-.5.05-.793a1.092,1.092,0,0,0-.05-.4V46.4a1.092,1.092,0,0,1,.05-.4,1.653,1.653,0,0,1,0-.5.629.629,0,0,1,.05-.3v-.793a1.715,1.715,0,0,1,.545.5L34.679,46l.4.4a6.385,6.385,0,0,1,.793.843c.1.1.149.2.248.3.2.2.4.347.545.5.1.1.1.149.2.248l1.339,1.19c.4.446.843.843,1.24,1.289.248.248,1.934,1.785,1.835,2.033-.05.05-.05.1-.1.149a5.9,5.9,0,0,1-.942.992c-.1.1-.149.2-.248.3l-.744.744c-.347.347-.694.645-1.041.992-.2.248-.446.446-.645.694-.05.05-.1.149-.149.2A12.563,12.563,0,0,0,35.522,58.4m9.124,10.264c-.2,0-.793-.05-.893.05a.182.182,0,0,0-.05.149V70.6a4.786,4.786,0,0,1,0,.843c0,.05-.05.1-.1.149-.2,0-.347-.1-.5-.1h-.446c-.1,0-.248-.05-.347-.05-.2,0-.446-.05-.645-.05h-.3c-.5,0-.992-.1-1.488-.149a3.05,3.05,0,0,0-.645-.05c-.2-.05-.347-.05-.545-.1-.1,0-.149-.05-.248-.05H38.1c-.248-.05-.5-.1-.793-.149-.2-.05-.446-.05-.645-.1v-.05h.05a2.6,2.6,0,0,1,.5-.545l.446-.446c.248-.248.5-.446.694-.645a2.291,2.291,0,0,0,.347-.347l.3-.3c.6-.545,1.19-1.14,1.785-1.686.347-.347.694-.744,1.041-1.091.5-.5.992-.942,1.488-1.488l.446-.446a1.438,1.438,0,0,1,0,.793c0,.248-.05.545-.05.843a1.859,1.859,0,0,0,.05.545,20.8,20.8,0,0,1,.4.645,3.349,3.349,0,0,0,.694.1c.3,0,.6-.05.942-.05a3.207,3.207,0,0,1-.2.645c-.149.347-.248.645-.4.992a1.485,1.485,0,0,1-.2.4.372.372,0,0,1-.248.05.154.154,0,0,0-.1-.05m1.438,3.818c-.248-.05-.446-.2-.645-.248a2.073,2.073,0,0,1-.5-.2h0a12.1,12.1,0,0,0,1.934-.05,1.231,1.231,0,0,0,.05-.446c0-.694-.1-1.636.545-1.983.1-.05.2-.05.3-.1.2,0,.6.05.6.3,0,.05-.05.05-.1.05-.4.05-.5.3-.694.6a3.628,3.628,0,0,0-.149,1.091c0,.347-.05.645-.05.992,0,.05-.2,0-.248,0-.1,0-.2.05-.3.05a3.512,3.512,0,0,0-.744-.05m2.876,0c-.1.2-.3.3-.446.446a.6.6,0,0,1-.248.248,1.872,1.872,0,0,0-.5.6c-.149-.149-.248-.3-.4-.446-.149-.1-.4-.248-.545-.347,0-.05.05,0,.05-.05.1,0,.149-.05.248-.05h.744a.182.182,0,0,1,.05-.149.629.629,0,0,1,.05-.3.629.629,0,0,0-.05-.3v-.3a2.8,2.8,0,0,1,0-.645c.05-.1.05-.248.1-.347.05-.149.05-.347.149-.446s.248-.1.4-.149a.107.107,0,0,1,.1.1,1.662,1.662,0,0,1,0,.5v1.091c0,.1.05.149.1.248a3.036,3.036,0,0,0,.2.3m1.24-.5a.379.379,0,0,0-.248.1,3.033,3.033,0,0,1-.6.248c0,.05,0,0-.05,0a1.485,1.485,0,0,1-.2-.4h.347A1.827,1.827,0,0,1,50.2,71.984Zm.793-3.372a.375.375,0,0,1-.4-.149c-.1-.1-.1-.248-.149-.347-.05-.2-.149-.4-.2-.6a1.455,1.455,0,0,1-.149-.5c0-.1.1-.149.2-.2.05,0,.1.05.149.1s.05.149.1.2c.05.2.149.4.2.6a2.867,2.867,0,0,0,.248.694c-.05,0,.05.149,0,.2m1.388,2.628c-.05.1-.248.1-.347.149,0-.545-.05-1.091,0-1.636v-.5c0-.05.05-.05.05-.1a.629.629,0,0,1,.3.05c.05,0,.05.248.05.3v.347a2.009,2.009,0,0,0,0,.545,2.419,2.419,0,0,1-.05.843m6.446-.694a.3.3,0,0,0-.2.05.934.934,0,0,0-.4.1c-.2,0-.347.1-.545.1-.1,0-.248.05-.347.05a.372.372,0,0,0-.248.05h-.3a.967.967,0,0,0-.4.05H56.25a1.428,1.428,0,0,0-.645.05h-.248a.447.447,0,0,1-.248-.05c0,.05-.248.1-.3.1-.149,0-.347-.05-.446,0h-.149a1.373,1.373,0,0,0-.446.05.629.629,0,0,0-.3.05c-.149,0-.5.05-.6-.05a6.573,6.573,0,0,1-.05-1.736v-.4c0-.149.05-.6-.2-.5a1.653,1.653,0,0,0-.5,0c-.149,0-.5.05-.6-.05a2.441,2.441,0,0,1-.3-.843,5.287,5.287,0,0,1-.347-.942v-.1c.05-.1.347-.05.446-.05a4.586,4.586,0,0,0,1.488-.149,2.223,2.223,0,0,0,.05-.6,3.05,3.05,0,0,1,.05-.645,3.337,3.337,0,0,1,.05-.992c.744.793,1.537,1.537,2.331,2.281a1.082,1.082,0,0,0,.2.248c.2.2.4.347.6.545.545.5.992,1.041,1.488,1.587l1.19,1.19c.05.1.2.149.248.248-.05.3-.149.347-.2.347m4.215-19.934c0,.2.05.4.05.645a.844.844,0,0,1-.05.347v1.041c0,.149.05.347.05.5,0,.248-.05.446-.05.694,0,.3.05.6.05.893,0,.2-.05.347-.05.545v.793a.967.967,0,0,0,.05.4c0,.1-.05.2-.05.3v.6a3.324,3.324,0,0,1,0,.992.3.3,0,0,1-.05.2c0,.2.05.347.05.5,0,.1-.05.2-.05.3v.793c0,.149.1.893-.05.893-.1,0-.744-.744-.893-.843-.843-.843-1.736-1.736-2.579-2.628-.149-.149-.248-.3-.4-.446l-.347-.347-.2-.2c-.843-.793-1.636-1.636-2.479-2.43-.149-.149-1.24-1.24-1.24-1.289v-.05a2.262,2.262,0,0,1,.6-.6c.2-.2.3-.347.5-.545a4.471,4.471,0,0,1,.5-.446.684.684,0,0,1,.2-.149,2.992,2.992,0,0,1,.4-.4l.4-.4a2.835,2.835,0,0,1,.347-.4c.149-.149.3-.248.446-.4a5.943,5.943,0,0,0,.545-.6c.2-.2.446-.4.645-.6.4-.446.843-.843,1.24-1.289A22.52,22.52,0,0,0,62.5,45.108c.149-.149.4-.3.5-.5a1.827,1.827,0,0,1,.05.744c.05.5,0,.992,0,1.488a3.753,3.753,0,0,0,.05.744c0,.248-.05.5-.05.793a1.373,1.373,0,0,0,.05.446v.446a.3.3,0,0,1-.05.2v1.14" transform="translate(-15.376 -15.303)" fill="#231f20"/>
    <path id="Path_9987" data-name="Path 9987" d="M37.8,33.425c-.1.149-.05.248.1.3.1,0,0-.248-.1-.3m.1,1.388q0-.074-.149-.149c-.1.149-.05.4-.05.645v1.686c0,.1.149-.05.149-.1a3.711,3.711,0,0,0,.05-1.289,4.2,4.2,0,0,0,0-.793m.347.3c-.149.2-.05.5-.05.744a1.031,1.031,0,0,0,.05.545h.05c.2,0,.2-1.041.149-1.19-.1-.1-.149-.1-.2-.1m-5.058,1.835c.1,0,.2-.1.3-.149.248-.149.545-.3.843-.446.149-.05.347-.1.5-.149a4.363,4.363,0,0,0,.744-.248,3.207,3.207,0,0,0,.645-.2.3.3,0,0,0,.149-.3.182.182,0,0,0-.2-.2.74.74,0,0,0-.347.149,1.461,1.461,0,0,0-.645.248,5.515,5.515,0,0,0-1.835.992c-.05.05-.3.2-.149.3h0m-1.983-.6a6.507,6.507,0,0,0-2.529-.942c-.2,0-.3.347-.149.446s.4.05.6.05c.149,0,.248.05.4.05a5.239,5.239,0,0,1,.942.3c.248.1.446.149.645.248s.793.6.942.545h.05c.05,0,0-.1,0-.1a4,4,0,0,0-.893-.6m4.81,1.537a9.253,9.253,0,0,0-1.091.347,1.084,1.084,0,0,0-.248.149,3.953,3.953,0,0,0-.793.4,2.982,2.982,0,0,0-.645.446c-.05.05-.2.149-.149.248s.248-.05.3-.1a5.41,5.41,0,0,1,1.736-.744c.2-.05.4-.1.545-.149a2.093,2.093,0,0,0,.6-.149.256.256,0,0,0,0-.446c0,.05-.149.05-.248,0m-4.066,1.587a2.045,2.045,0,0,0-.645-.5c-.1-.05-.149-.05-.248-.1a7.077,7.077,0,0,0-1.091-.4c-.149-.05-.248-.1-.4-.149s-.3-.05-.446-.1a1.448,1.448,0,0,0-.446-.1c-.3,0-.3.4-.1.5.05,0,.05,0,.1.05.248.05.5.05.744.1.2.05.446.1.645.149.149.05.3.05.446.1a7.792,7.792,0,0,1,1.14.446c.149.05.3.248.5.2-.05-.1-.149-.1-.2-.2M6.064,31.292c.545.1.744.05.793-.347l.149.05-.347,1.587-.149-.05c.05-.347,0-.545-.6-.694l-3.471-.793-.149.645c-.149.6-.05.942.446,1.091v.2L1.7,32.731v-.1c.05-.05.149-.1.2-.2a2.305,2.305,0,0,0,.149-.446l.545-2.38c.1-.4.1-.6,0-.744l.05-.149,1.041.248v.1c-.4,0-.694.1-.843.793l-.248.645Zm.248-5.157,1.19.6c.5.248.744.2.893-.149l.1.05L7.75,28.119l-.149-.05c.149-.3.1-.545-.446-.793L4.675,25.987c-.5-.248-.694-.2-.893.149l-.1-.05L4.427,24.6l.149.05c-.149.347-.1.545.446.793l1.19.6L7.3,23.755l-1.19-.6c-.5-.248-.694-.2-.893.149l-.149-.05.744-1.488.149.05c-.2.347-.05.545.446.793L8.989,23.9c.5.248.744.2.893-.149l.149.05-.744,1.488-.149-.05c.149-.347.1-.5-.446-.793l-1.19-.6Zm5.5-7.636-.1.1c-.347-.2-.446-.149-.744.2l-.744.893,1.289,1.041c.2.149.3.149.446-.05l.5-.645c.446-.545.545-.694.248-1.289l.1-.1.545.694-2.132,2.579-.1-.1c.248-.3.248-.5-.248-.893L8.642,19.144C8.2,18.8,8,18.8,7.75,19.094l-.1-.1,2.132-2.579.6.5-.05.05c-.446-.248-.6-.149-.942.248l-.843,1.041L10.08,19.54l.843-.992c.2-.248.248-.347-.05-.694l.1-.1Zm8.727-5.256a1.944,1.944,0,0,1-.992,1.438,1.508,1.508,0,0,1-2.182-.6L16.229,12.1c-.3-.545-.5-.545-.843-.4l-.05-.1,1.488-.843.05.1c-.347.2-.4.4-.1.893l1.14,2.033a1.094,1.094,0,0,0,1.636.5,1.652,1.652,0,0,0,.793-1.339l-1.388-2.43c-.248-.446-.446-.545-.793-.4l-.05-.1,1.438-.793.05.1c-.347.2-.347.4-.1.893l1.438,2.529c.3.545.5.545.843.4l.05.1-.992.545Zm7.339-1.835-.149.05L23.568,8.334l.793,3.174q.149.669.744.446l.05.149-1.388.347-.05-.149c.4-.1.545-.248.347-.893L23.369,8.78c-.149-.5-.347-.744-.893-.645l.05-.149,1.14-.3,3.719,2.777-.694-2.628c-.149-.6-.347-.694-.744-.6l-.05-.149,1.339-.347.05.149c-.446.1-.545.347-.4.843Zm3.818-1.24c.05.545.2.744.545.694v.149l-1.686.1v-.149c.4,0,.5-.149.5-.744l-.149-2.876c-.05-.6-.149-.744-.545-.694V6.5l1.686-.1v.149c-.4,0-.5.2-.5.744Zm4.661,1.19h-.149L35.27,7.441c-.149-.6-.248-.843-.645-.893V6.4l1.686.2v.149c-.347-.05-.5.1-.446.5l.744,3.124L38.047,7.64c.2-.4.149-.645-.248-.694V6.8l1.339.2v.149c-.347-.05-.645.2-.942.793Zm7.339.05-.149-.05c.05-.4,0-.5-.446-.645l-1.091-.4-.6,1.537c-.1.2-.05.347.2.4l.744.3c.645.248.793.248,1.289-.2l.149.05-.5.744L40.179,12l.05-.149c.347.149.545.05.744-.5l.992-2.727c.2-.545.149-.744-.248-.893l.05-.149,3.124,1.14-.248.744-.1-.05c.1-.5-.05-.6-.545-.793l-1.24-.446-.694,1.884,1.24.446c.3.1.446.1.645-.248l.149.05Zm5.306-.3.4.248a1.062,1.062,0,0,1,.4,1.537.987.987,0,0,1-1.488.3l-.5-.3Zm-1.289,1.934.3.2c.694.446.3,1.537.446,2.876l.793.545.1-.1c-.6-.5,0-1.934-.446-2.876a1.161,1.161,0,0,0,1.438-.446c.347-.5.248-1.289-.645-1.884l-1.587-1.041-.1.1c.3.2.4.4.05.893l-1.587,2.43c-.347.545-.545.545-.843.347l-.1.1,1.388.942.1-.1c-.3-.2-.347-.446-.05-.893ZM55.1,17.259l-.1-.1a.945.945,0,0,0-.05-1.388.745.745,0,0,0-1.091-.1c-.6.6.05,1.587.05,2.529a1.125,1.125,0,0,1-.4.942,1.379,1.379,0,0,1-1.884,0c-.347-.347-.446-.793-.6-.942a.221.221,0,0,0-.248,0v-.1l.893-.893.1.1a1.147,1.147,0,0,0-.05,1.587.835.835,0,0,0,1.24.1c.6-.545-.05-1.736-.05-2.43a1.27,1.27,0,0,1,.4-.942,1.161,1.161,0,0,1,1.736.05,2.638,2.638,0,0,1,.5.793c.05.05.05.05.2,0l.1.1Zm.4,4.959c-.446.347-.545.545-.3.843l-.1.1-.942-1.388.1-.1c.2.3.4.347.893,0l2.38-1.636c.5-.347.545-.545.3-.843l.1-.1.942,1.388-.1.1c-.2-.3-.446-.347-.893,0Zm2.331,4.215c-.5.248-.6.4-.446.744l-.149.05-.694-1.488.149-.05c.149.3.3.446.893.149l3.223-1.488-.3-.6c-.248-.545-.545-.744-.992-.6l-.05-.149.942-.446.05.149a.312.312,0,0,0,0,.3,1.142,1.142,0,0,0,.149.446l.992,2.231a1.22,1.22,0,0,0,.446.6l.05.149-.992.446-.05-.1c.3-.248.5-.5.2-1.19l-.3-.645Zm1.835,5.653c-.545.1-.694.248-.6.645l-.149.05-.347-1.636.149-.05c.05.347.2.545.843.4l1.438-.3L62.295,29.9c.446-.446.5-.6.446-.942l.149-.05.4,1.785-.149.05c-.1-.5-.3-.5-.545-.3L61.4,31.64l1.289.5c.4.149.744.1.645-.3l.149-.05.248,1.24-.149.05c-.1-.347-.2-.446-.694-.6l-1.835-.694-1.388.3Zm-55.14,11.8A1.96,1.96,0,0,1,7.2,44.978c.248.942-.3,1.884-1.736,2.281-1.091.3-2.331.05-2.628-1.091-.3-.942.4-1.884,1.686-2.281m-.2-.694a2.445,2.445,0,0,0-1.686,3.074A2.425,2.425,0,1,0,7.3,44.929a2.389,2.389,0,0,0-2.975-1.736m1.835,9.025c-.5.3-.545.5-.4.843l-.1.05-.843-1.438.1-.05c.2.347.4.4.893.1l2.529-1.438c.5-.3.6-.5.4-.843l.1-.05,1.587,2.777-.744.4-.05-.1c.446-.4.4-.5.149-.942l-.6-1.041L7.5,51.425l.6,1.041c.149.3.4.347.744.2l.05.1-1.14.645-.05-.1a.466.466,0,0,0,.2-.694l-.6-1.041Zm8.926,8.975-.1-.1c.2-.347.149-.446-.2-.744l-.893-.744L12.857,60.9c-.149.2-.149.3.05.446l.645.5c.545.446.694.5,1.289.2l.1.1-.694.545-2.579-2.132.1-.1c.3.248.5.248.893-.248l1.835-2.231c.347-.446.347-.645.05-.893l.1-.1,2.579,2.132-.5.6-.05-.05c.248-.446.149-.6-.248-.942l-1.041-.843-1.24,1.537.992.843c.248.2.4.248.694-.05l.1.1Zm5.306.149.793.347a1.965,1.965,0,0,1,.893,2.876,1.8,1.8,0,0,1-2.529,1.091l-.446-.2c-.4-.2-.5-.4-.2-1.041Zm-2.083,3.025c-.248.545-.446.6-.793.446l-.05.149,1.983.942c1.636.744,2.777.1,3.273-.992a2.385,2.385,0,0,0-1.388-3.273L19.4,60.747l-.05.149c.347.149.4.4.149.893Zm8.182,2.926c-.1.545,0,.744.347.843l-.05.149-1.636-.347.05-.149c.347.1.545-.05.694-.6l.645-2.826c.149-.6.05-.744-.347-.843l.05-.149,1.636.347-.05.149c-.4-.1-.545.05-.694.6Zm8.43,1.488h-.149l-3.322-4.017.05,3.273c0,.5.2.645.6.645v.149H30.708v-.149c.4,0,.6-.149.545-.793L31.2,65.16c0-.5-.149-.793-.694-.843v-.149H31.7l2.926,3.57-.05-2.727c0-.6-.149-.744-.6-.744v-.149h1.388v.149c-.446,0-.6.2-.6.744l.149,3.769Zm4.859-3.322-.545-1.884.446-.1c.744-.2,1.19.1,1.339.645a1,1,0,0,1-.793,1.24Zm-.149,1.736c.149.545.05.744-.3.843l.05.149,2.083-.545c.843-.248,1.339-.793,1.14-1.488a1.39,1.39,0,0,0-1.488-.942c.545-.4.744-.793.645-1.24-.149-.6-.793-.942-1.835-.645l-1.686.446.05.149c.4-.1.545,0,.694.545Zm.2-1.587.446-.1c.793-.2,1.438.1,1.587.744a.867.867,0,0,1-.6,1.19l-.347.1c-.347.1-.5,0-.645-.645ZM49.2,63.375a2.029,2.029,0,0,1-.942,1.438,1.508,1.508,0,0,1-2.182-.6l-1.14-1.983c-.3-.545-.5-.545-.843-.347l-.05-.1,1.438-.843.05.1c-.347.2-.4.4-.1.893l1.19,2.033a1.111,1.111,0,0,0,1.636.446,1.5,1.5,0,0,0,.744-1.339l-1.388-2.43c-.248-.446-.446-.545-.793-.4l-.05-.1,1.438-.843.05.1c-.347.2-.347.4-.1.893L49.6,62.78c.3.545.5.545.843.347l.05.1-.992.6Zm1.884-6.3.347-.347a1.073,1.073,0,0,1,1.587-.1,1.01,1.01,0,0,1,0,1.537l-.4.4Zm1.686,1.636.248-.248c.6-.6,1.537,0,2.926.1l.645-.694-.1-.1c-.6.5-1.884-.347-2.876-.149a1.159,1.159,0,0,0-.149-1.488,1.3,1.3,0,0,0-1.934.248L50.2,57.722l.1.1c.248-.248.446-.3.893.149L53.27,60c.446.446.4.645.149.893l.1.1,1.19-1.19-.1-.1c-.248.3-.5.248-.893-.149Zm7.636-6.5a5.343,5.343,0,0,1-.6,1.19c-1.041,1.736-2.479,1.686-3.372,1.14a2.459,2.459,0,0,1-.942-3.372c.347-.545.645-.645.843-.942.1-.149.1-.2,0-.3l.1-.1,1.19.694-.05.1a1.5,1.5,0,0,0-1.884.645,1.852,1.852,0,0,0,.942,2.529,2.141,2.141,0,0,0,3.025-.4c.149-.3.347-.694,0-.942l-.446-.248c-.5-.3-.744-.3-.942.05l-.1.149-.1-.05.992-1.587.1.05c-.248.4-.1.6.248.793Zm-.149-5.355,1.289.4c.545.149.744.05.843-.3l.149.05L62.1,48.648l-.149-.05c.1-.347.05-.545-.545-.694l-2.777-.793c-.545-.149-.744-.1-.843.3l-.149-.05.446-1.636.149.05c-.1.347,0,.545.545.694l1.289.347.694-2.43-1.289-.347c-.545-.149-.744-.1-.843.3l-.149-.05.446-1.587.149.05c-.1.4.05.545.545.694l2.777.793c.545.149.744.1.843-.3l.149.05-.446,1.587-.149-.05c.1-.347.05-.545-.545-.694l-1.289-.4-.694,2.43ZM4.13,38.036a.437.437,0,0,1-.446.4.4.4,0,0,1,0-.793.38.38,0,0,1,.446.4m58.066,0a.4.4,0,1,1-.4-.4c.248-.05.4.149.4.4" transform="translate(0 0)" fill="#231f20"/>
    <path id="Path_9988" data-name="Path 9988" d="M177.436,70.5l-.149,1.339h-4.612l-.5,3.62h4.066l-.2,1.339h-4.066l-.545,3.818h6l-.2,1.339H169.7L171.386,70.5Zm8.281,0L184.08,81.953a7.332,7.332,0,0,1-1.934.248,4.215,4.215,0,0,1-2.926-.893,3.255,3.255,0,0,1-1.041-2.578,4.425,4.425,0,0,1,1.339-3.074,4.816,4.816,0,0,1,3.62-1.438h.6l.5-3.669h1.488Zm-2.926,10.512.793-5.6h-.347a3.474,3.474,0,0,0-2.579.992,3.227,3.227,0,0,0-.992,2.331,2.211,2.211,0,0,0,.645,1.736,2.635,2.635,0,0,0,1.835.6,3.557,3.557,0,0,1,.645-.05m5.653-6.6L187.4,82h-1.438l1.041-7.587Zm-1.289-2.38a.847.847,0,0,1,.843-.843.915.915,0,0,1,.6.248.821.821,0,0,1,.248.6.915.915,0,0,1-.248.6.821.821,0,0,1-.6.248.847.847,0,0,1-.843-.843m4.562,2.38-.2,1.339h.05a3.308,3.308,0,0,1,2.529-1.488,1.629,1.629,0,0,1,1.388.645,2.622,2.622,0,0,1,.5,1.686,2.414,2.414,0,0,1-.05.6l-.744,4.76H193.8l.694-4.81a1.53,1.53,0,0,0,.05-.446,1.472,1.472,0,0,0-.248-.893.707.707,0,0,0-.6-.3,2.182,2.182,0,0,0-.5.1,2.591,2.591,0,0,0-.6.347,4.373,4.373,0,0,0-.744.694q-.446.446-.446.6l-.694,4.81h-1.388l1.041-7.587,1.339-.05Zm8.43-3.917-.6,4.512a2.538,2.538,0,0,1,1.835-.843,2.306,2.306,0,0,1,1.934.942,3.983,3.983,0,0,1,.744,2.479,4.446,4.446,0,0,1-1.289,3.273,5.005,5.005,0,0,1-3.669,1.289c-.793,0-1.438-.05-1.983-.1l1.587-11.6,1.438.05Zm-1.488,10.512h.793a2.854,2.854,0,0,0,2.281-.942,3.571,3.571,0,0,0,.843-2.479A2.422,2.422,0,0,0,202.13,76a1.414,1.414,0,0,0-1.19-.6,2.23,2.23,0,0,0-1.041.3,1.006,1.006,0,0,0-.6.694l-.645,4.612Zm13.24-6.6-1.041,7.537h-1.388l.149-1.289a3.558,3.558,0,0,1-2.479,1.388,1.8,1.8,0,0,1-1.289-.545,2.148,2.148,0,0,1-.545-1.537,2.414,2.414,0,0,1,.05-.6l.694-5.008h1.438l-.694,5.008c0,.149-.05.3-.05.446,0,.744.3,1.14.843,1.14.6,0,1.339-.545,2.281-1.686l.694-4.909,1.339.05Zm3.669,0-.2,1.438.05.05a5.272,5.272,0,0,1,1.091-1.289,1.526,1.526,0,0,1,.942-.3,2.512,2.512,0,0,1,.645.1v1.636a2.021,2.021,0,0,0-.893-.248,1.2,1.2,0,0,0-.744.2,3.747,3.747,0,0,0-.793.893,3.51,3.51,0,0,0-.5.843l-.6,4.264h-1.438l1.041-7.587Zm9.62,0-.149,1.14h-1.488a2.544,2.544,0,0,1,.5,1.488,3.271,3.271,0,0,1-.4,1.587,2.387,2.387,0,0,1-.992.992,5.177,5.177,0,0,1-1.537.446,4.389,4.389,0,0,0-1.19.347.506.506,0,0,0-.248.4.359.359,0,0,0,.2.3,6.723,6.723,0,0,0,1.537.446,3.719,3.719,0,0,1,1.835.843,1.8,1.8,0,0,1,.545,1.289,1.826,1.826,0,0,1-.893,1.537,3.938,3.938,0,0,1-2.231.6,4.966,4.966,0,0,1-2.38-.545,1.725,1.725,0,0,1-.942-1.388c0-.744.744-1.24,2.182-1.537-.893-.347-1.339-.744-1.339-1.339a1.323,1.323,0,0,1,.4-.843,2.845,2.845,0,0,1,1.091-.6,2.28,2.28,0,0,1-1.388-2.182,2.956,2.956,0,0,1,.843-2.132,2.744,2.744,0,0,1,1.983-.893h4.066Zm-4.264,10.364a2.656,2.656,0,0,0,1.19-.248.8.8,0,0,0,.446-.694c0-.3-.248-.545-.694-.744a3.9,3.9,0,0,0-.992-.347,3.284,3.284,0,0,0-1.14.347c-.545.248-.793.5-.793.793s.2.5.545.645a3.4,3.4,0,0,0,1.438.248m.3-5.95a1.228,1.228,0,0,0,1.041-.545,1.778,1.778,0,0,0,.4-1.24,1.634,1.634,0,0,0-.4-1.091,1.221,1.221,0,0,0-.942-.446,1.367,1.367,0,0,0-1.041.545,1.813,1.813,0,0,0-.446,1.24,1.634,1.634,0,0,0,.4,1.091,1.169,1.169,0,0,0,.992.446m7.091-8.331-.744,5.107.05.05a3.554,3.554,0,0,1,2.628-1.488,1.644,1.644,0,0,1,1.289.545,2.461,2.461,0,0,1,.446,1.537,2.034,2.034,0,0,1-.05.545l-.744,5.157h-1.438l.744-5.256V76.35c0-.744-.3-1.091-.893-1.091a2.228,2.228,0,0,0-1.438.843,3.782,3.782,0,0,0-.843.992L226.625,82h-1.388l1.636-11.5Zm16.959-.149-.3,1.438h-.843a6.216,6.216,0,0,0-4.562,1.587,5.274,5.274,0,0,0-1.587,3.868,3.571,3.571,0,0,0,.843,2.479,2.717,2.717,0,0,0,2.182.942,4.827,4.827,0,0,0,1.686-.4,6.475,6.475,0,0,0,1.785-1.041l-.248,1.835a7.239,7.239,0,0,1-3.421.992,4.084,4.084,0,0,1-3.174-1.339,4.766,4.766,0,0,1-1.24-3.421,6.452,6.452,0,0,1,2.132-5.058,8.192,8.192,0,0,1,5.7-1.934l1.041.05Zm3.769,3.818a2.528,2.528,0,0,1,2.033.893,3.6,3.6,0,0,1,.744,2.38,5.409,5.409,0,0,1-1.041,3.421,3.111,3.111,0,0,1-2.529,1.339,2.561,2.561,0,0,1-2.083-.893,3.792,3.792,0,0,1-.744-2.479,5.215,5.215,0,0,1,1.041-3.322,3.132,3.132,0,0,1,2.578-1.339m0,1.141A1.817,1.817,0,0,0,247.5,76.4a4.861,4.861,0,0,0-.645,2.579,2.472,2.472,0,0,0,.4,1.438,1.074,1.074,0,0,0,.942.545,1.852,1.852,0,0,0,1.537-1.041,4.632,4.632,0,0,0,.645-2.578,2.827,2.827,0,0,0-.347-1.537,1.377,1.377,0,0,0-.992-.5m6.744-4.81-1.636,11.455h-1.438L254.344,70.5h1.438Zm3.174,0L257.32,81.953h-1.438L257.518,70.5Zm6.248,9.521-.2,1.388a4.191,4.191,0,0,1-2.529.843,2.89,2.89,0,0,1-2.281-.992,3.78,3.78,0,0,1-.843-2.678,4.752,4.752,0,0,1,1.041-3.124,3.142,3.142,0,0,1,2.529-1.24,2.541,2.541,0,0,1,1.934.893,3.413,3.413,0,0,1,.744,2.281,3.275,3.275,0,0,1-.05.694H260.84a3.753,3.753,0,0,0-.05.744,2.211,2.211,0,0,0,.6,1.636,1.907,1.907,0,0,0,1.438.6,5.251,5.251,0,0,0,2.38-1.041m-4.165-2.975h3.174a1.848,1.848,0,0,0-.347-1.24,1.248,1.248,0,0,0-.992-.446c-.843,0-1.488.545-1.835,1.686m12.5-2.628-.149,1.14H271.9a2.544,2.544,0,0,1,.5,1.488,3.271,3.271,0,0,1-.4,1.587,2.387,2.387,0,0,1-.992.992,5.177,5.177,0,0,1-1.537.446,4.389,4.389,0,0,0-1.19.347.506.506,0,0,0-.248.4.359.359,0,0,0,.2.3,6.723,6.723,0,0,0,1.537.446,3.719,3.719,0,0,1,1.835.843,1.8,1.8,0,0,1,.545,1.289,1.826,1.826,0,0,1-.893,1.537,3.938,3.938,0,0,1-2.231.6,4.966,4.966,0,0,1-2.38-.545,1.725,1.725,0,0,1-.942-1.388c0-.744.744-1.24,2.182-1.537-.893-.347-1.339-.744-1.339-1.339a1.323,1.323,0,0,1,.4-.843,2.845,2.845,0,0,1,1.091-.6,2.28,2.28,0,0,1-1.388-2.182,2.956,2.956,0,0,1,.843-2.132,2.568,2.568,0,0,1,1.983-.893h4.066ZM269.27,84.779a2.656,2.656,0,0,0,1.19-.248.8.8,0,0,0,.446-.694c0-.3-.248-.545-.694-.744a3.9,3.9,0,0,0-.992-.347,3.284,3.284,0,0,0-1.14.347c-.545.248-.793.5-.793.793s.2.5.545.645a3.4,3.4,0,0,0,1.438.248m.3-5.95a1.228,1.228,0,0,0,1.041-.545,1.778,1.778,0,0,0,.4-1.24,1.634,1.634,0,0,0-.4-1.091,1.221,1.221,0,0,0-.942-.446,1.367,1.367,0,0,0-1.041.545,1.813,1.813,0,0,0-.446,1.24,1.634,1.634,0,0,0,.4,1.091,1.169,1.169,0,0,0,.992.446m9.967,1.19-.2,1.388a4.191,4.191,0,0,1-2.529.843,2.89,2.89,0,0,1-2.281-.992,3.8,3.8,0,0,1-.893-2.678,4.752,4.752,0,0,1,1.041-3.124,3.142,3.142,0,0,1,2.529-1.24,2.541,2.541,0,0,1,1.934.893,3.413,3.413,0,0,1,.744,2.281,3.273,3.273,0,0,1-.05.694h-4.711a3.753,3.753,0,0,0-.05.744,2.211,2.211,0,0,0,.6,1.636,1.907,1.907,0,0,0,1.438.6,5.392,5.392,0,0,0,2.43-1.041m-4.215-2.975h3.174a1.848,1.848,0,0,0-.347-1.24,1.248,1.248,0,0,0-.992-.446c-.843,0-1.438.545-1.835,1.686m11.306-2.876a2.528,2.528,0,0,1,2.033.893,3.619,3.619,0,0,1,.793,2.38,5.409,5.409,0,0,1-1.041,3.421,3.111,3.111,0,0,1-2.529,1.339,2.561,2.561,0,0,1-2.083-.893,3.792,3.792,0,0,1-.744-2.479,5.215,5.215,0,0,1,1.041-3.322,2.983,2.983,0,0,1,2.529-1.339m0,1.141a1.817,1.817,0,0,0-1.537,1.091,4.861,4.861,0,0,0-.645,2.579,2.472,2.472,0,0,0,.4,1.438,1.074,1.074,0,0,0,.942.545,1.852,1.852,0,0,0,1.537-1.041,4.632,4.632,0,0,0,.645-2.578,3.354,3.354,0,0,0-.347-1.537,1.294,1.294,0,0,0-.992-.5m8.132-.893-.2,1.289h-1.537l-1.24,9.471h-1.388l1.24-9.471h-1.24l.2-1.289h1.19a5.04,5.04,0,0,1,1.091-3.025,3.326,3.326,0,0,1,2.579-1.041,5.187,5.187,0,0,1,1.835.347l-.2,1.438a2.8,2.8,0,0,0-1.488-.4c-1.438,0-2.182.893-2.38,2.727l1.537-.05Zm9.421-4.017,2.231,11.554h-1.438l-.694-3.62h-3.62l-1.537,3.62h-1.488L302.741,70.4ZM301.2,77.143h2.876l-.893-4.711Zm8.926-2.727-.2,1.438.05.05a5.273,5.273,0,0,1,1.091-1.289,1.526,1.526,0,0,1,.942-.3,2.512,2.512,0,0,1,.645.1v1.636a2.02,2.02,0,0,0-.893-.248,1.2,1.2,0,0,0-.744.2,3.747,3.747,0,0,0-.793.893,3.509,3.509,0,0,0-.5.843l-.6,4.264H307.7l1.041-7.587Zm7.587,0-.149,1.14H316.08l-.744,4.116a2.224,2.224,0,0,0-.05.545c0,.5.248.744.793.744a2.985,2.985,0,0,0,1.388-.446l-.1,1.388a3.674,3.674,0,0,1-1.587.347,2.162,2.162,0,0,1-1.488-.5,1.612,1.612,0,0,1-.545-1.24,1.092,1.092,0,0,1,.05-.4l.793-4.562h-1.339l.2-1.14h1.388l.3-1.537h1.388l-.3,1.537Z" transform="translate(-84.694 -32.214)" fill="#6d6e70"/>
    <path id="Path_9989" data-name="Path 9989" d="M148.2,37.2h.744V69.283H148.2Zm16.512.744h-1.289v6.6a1.832,1.832,0,0,0,.2,1.041.853.853,0,0,0,.744.248v.248H161.34v-.248a.912.912,0,0,0,.793-.3,1.832,1.832,0,0,0,.2-1.041V37.944h-1.24a2.145,2.145,0,0,0-1.289.3,1.152,1.152,0,0,0-.446.942h-.248V37.2h.248a2.045,2.045,0,0,0,1.289.3h4.512a2.219,2.219,0,0,0,1.339-.3h.248v1.983H166.6a1.428,1.428,0,0,0-.6-.992,2.971,2.971,0,0,0-1.289-.248m9.818,6.545V42.01h-4.661v2.479a1.832,1.832,0,0,0,.2,1.041.912.912,0,0,0,.793.3v.248h-3.124v-.248q.6,0,.744-.3a1.832,1.832,0,0,0,.2-1.041V39.134a1.919,1.919,0,0,0-.2-1.091.87.87,0,0,0-.744-.3V37.5h3.124v.248a.912.912,0,0,0-.793.3,1.832,1.832,0,0,0-.2,1.041v2.479h4.661v-2.43a1.919,1.919,0,0,0-.2-1.091.87.87,0,0,0-.744-.3V37.5h3.074v.248a.87.87,0,0,0-.744.3,1.919,1.919,0,0,0-.2,1.091v5.355a1.731,1.731,0,0,0,.2,1.041.87.87,0,0,0,.744.3v.248h-3.074v-.248q.6,0,.744-.3a1.832,1.832,0,0,0,.2-1.041m8.826-3.719h.248v2.083h-.248a1.277,1.277,0,0,0-.347-.694,1.571,1.571,0,0,0-.843-.149h-2.132v3.074a.606.606,0,0,0,.149.446.658.658,0,0,0,.5.149h1.488a4.7,4.7,0,0,0,1.091-.1.717.717,0,0,0,.5-.347,2.225,2.225,0,0,0,.446-.793h.248l-.4,1.587h-6.2v-.248a.912.912,0,0,0,.793-.3,1.832,1.832,0,0,0,.2-1.041V39.134a1.92,1.92,0,0,0-.2-1.091.87.87,0,0,0-.744-.3V37.5h6.2v1.438h-.149c-.1-.4-.2-.694-.4-.793-.149-.149-.5-.2-1.041-.2h-2.479v3.669h2.38c.347,0,.545-.05.645-.2a.873.873,0,0,0,.3-.645m12.2,3.521V39.134a1.832,1.832,0,0,0-.2-1.041.832.832,0,0,0-.694-.3v-.248h3.025V37.8a.87.87,0,0,0-.744.3,1.919,1.919,0,0,0-.2,1.091v5.355a1.832,1.832,0,0,0,.2,1.041.87.87,0,0,0,.744.3v.248h-2.132v-1.19a3.588,3.588,0,0,1-2.876,1.388,2.769,2.769,0,0,1-2.132-.793,3.048,3.048,0,0,1-.793-2.132V39.183a2.14,2.14,0,0,0-.2-1.091.912.912,0,0,0-.793-.3v-.248h3.124V37.8a.912.912,0,0,0-.793.3,1.832,1.832,0,0,0-.2,1.041V43.5a2.211,2.211,0,0,0,.6,1.636,2.171,2.171,0,0,0,1.587.6,2.829,2.829,0,0,0,2.479-1.438m9.818-6.5v-.248h2.578V37.8a1.021,1.021,0,0,0-.843.3,1.773,1.773,0,0,0-.248,1.041v6.992h-.248l-6.1-7.438v6a1.277,1.277,0,0,0,.248.893,1.021,1.021,0,0,0,.843.3v.248h-2.579v-.248a.907.907,0,0,0,.843-.347,2.119,2.119,0,0,0,.2-1.14V39.382a1.907,1.907,0,0,0-.3-1.19,1.23,1.23,0,0,0-.992-.4v-.248h2.182l5.4,6.694V39.183a1.846,1.846,0,0,0-.248-1.091c-.05-.2-.347-.3-.744-.3m6.893-.248V37.8a.87.87,0,0,0-.744.3,1.919,1.919,0,0,0-.2,1.091v5.355a1.831,1.831,0,0,0,.2,1.041.87.87,0,0,0,.744.3v.248h-3.074v-.248q.6,0,.744-.3a1.92,1.92,0,0,0,.2-1.091V39.134a1.92,1.92,0,0,0-.2-1.091.912.912,0,0,0-.793-.3V37.5h3.124Zm9.471,0V37.8c-.645,0-1.141.545-1.537,1.686l-2.529,6.744h-.3L214.7,39.283a3.85,3.85,0,0,0-.645-1.24,1.262,1.262,0,0,0-.793-.248v-.248h3.124V37.8q-.744,0-.744.6a1.84,1.84,0,0,0,.1.446l2.083,5.554,1.983-5.355a1.714,1.714,0,0,0,.149-.6q0-.6-.744-.6V37.6l2.529-.05Zm6.248,3.223h.248v2.083h-.248a1.277,1.277,0,0,0-.347-.694,1.571,1.571,0,0,0-.843-.149h-2.132v3.074a.606.606,0,0,0,.149.446.658.658,0,0,0,.5.149h1.488a4.7,4.7,0,0,0,1.091-.1.717.717,0,0,0,.5-.347,2.224,2.224,0,0,0,.446-.793h.248l-.4,1.587h-6.2v-.248a.912.912,0,0,0,.793-.3,1.832,1.832,0,0,0,.2-1.041V39.134a1.919,1.919,0,0,0-.2-1.091.87.87,0,0,0-.744-.3V37.5h6.2v1.438h-.149c-.1-.4-.2-.694-.4-.793-.149-.149-.5-.2-1.041-.2h-2.479v3.669h2.38c.347,0,.545-.05.645-.2.2-.1.248-.3.3-.645m5.058,1.339h-.694v2.38a1.832,1.832,0,0,0,.2,1.041.87.87,0,0,0,.744.3v.248h-3.025v-.248a.912.912,0,0,0,.793-.3,1.832,1.832,0,0,0,.2-1.041V39.134a1.832,1.832,0,0,0-.2-1.041.912.912,0,0,0-.793-.3v-.248h3.521a3.081,3.081,0,0,1,2.083.645,2.1,2.1,0,0,1-.992,3.719,3.175,3.175,0,0,1,.744.694c.248.3.545.793.992,1.438a8.629,8.629,0,0,0,1.041,1.488,1.35,1.35,0,0,0,.793.4v.248h-1.736a18.394,18.394,0,0,1-1.289-1.934,7.333,7.333,0,0,0-1.289-1.686,1.627,1.627,0,0,0-1.091-.446m.248-4.264H232.4v3.917h1.041a2.024,2.024,0,0,0,1.488-.545,1.984,1.984,0,0,0,.545-1.438,1.73,1.73,0,0,0-.6-1.388,2.461,2.461,0,0,0-1.587-.545m10.215-.446h.248v2.033h-.248a1.862,1.862,0,0,0-.6-1.289,1.942,1.942,0,0,0-1.289-.446,1.738,1.738,0,0,0-1.14.347,1.152,1.152,0,0,0-.446.942,1.516,1.516,0,0,0,.347.992,5.731,5.731,0,0,0,1.537,1.14,6.143,6.143,0,0,1,1.835,1.438,2.32,2.32,0,0,1,.446,1.388,2.478,2.478,0,0,1-.694,1.736,2.281,2.281,0,0,1-1.736.694,4.895,4.895,0,0,1-1.488-.3,1.616,1.616,0,0,0-.5-.149c-.149,0-.248.1-.347.347h-.248V43.944h.248a1.919,1.919,0,0,0,.645,1.537,1.986,1.986,0,0,0,1.438.6,1.856,1.856,0,0,0,1.24-.4,1.458,1.458,0,0,0,.446-1.091,1.575,1.575,0,0,0-.4-.992,6.694,6.694,0,0,0-1.636-1.24,7.693,7.693,0,0,1-1.339-.992,1.941,1.941,0,0,1-.5-.793,2.888,2.888,0,0,1-.149-.942,2.023,2.023,0,0,1,.645-1.587,2.415,2.415,0,0,1,1.686-.6,3.93,3.93,0,0,1,1.24.248,2.516,2.516,0,0,0,.446.1.182.182,0,0,0,.149-.05c.1-.2.149-.248.149-.347m5.256.149V37.8a.87.87,0,0,0-.744.3,1.92,1.92,0,0,0-.2,1.091v5.355a1.832,1.832,0,0,0,.2,1.041.87.87,0,0,0,.744.3v.248h-3.124v-.248q.6,0,.744-.3a1.92,1.92,0,0,0,.2-1.091V39.134a1.92,1.92,0,0,0-.2-1.091.912.912,0,0,0-.793-.3V37.5h3.174Zm6.793.4h-1.289v6.6a1.832,1.832,0,0,0,.2,1.041.853.853,0,0,0,.744.248v.248h-3.025v-.248a.912.912,0,0,0,.793-.3,1.832,1.832,0,0,0,.2-1.041V37.944h-1.24a2.145,2.145,0,0,0-1.289.3,1.152,1.152,0,0,0-.446.942h-.248V37.2h.248a2.045,2.045,0,0,0,1.289.3H256a2.219,2.219,0,0,0,1.339-.3h.248v1.983h-.149a1.428,1.428,0,0,0-.6-.992,3.137,3.137,0,0,0-1.289-.248m9.223.793-1.934,3.025V44.44a1.92,1.92,0,0,0,.2,1.091.87.87,0,0,0,.744.3v.248h-3.124v-.248a.958.958,0,0,0,.843-.3,1.832,1.832,0,0,0,.2-1.041V41.812l-1.835-2.826a3.376,3.376,0,0,0-.744-.942,1.262,1.262,0,0,0-.793-.248v-.248H261.7V37.8c-.6,0-.893.149-.893.4a.806.806,0,0,0,.2.446l1.686,2.579,1.339-2.132a1.581,1.581,0,0,0,.3-.843.483.483,0,0,0-.545-.5V37.5h2.331v.248a1.643,1.643,0,0,0-.744.2,4.557,4.557,0,0,0-.6.793m6.694,2.281a1.31,1.31,0,0,1,1.041.5,1.777,1.777,0,0,1,.446,1.19,3.957,3.957,0,0,1-.893,2.38,2.59,2.59,0,0,1-2.132,1.19,1.436,1.436,0,0,1-1.14-.5,1.813,1.813,0,0,1-.446-1.24,3.578,3.578,0,0,1,.942-2.43,2.914,2.914,0,0,1,2.182-1.091m-1.24,4.81c.5,0,.893-.3,1.289-.893a4.256,4.256,0,0,0,.545-2.132,1.43,1.43,0,0,0-.3-.942.942.942,0,0,0-.744-.4,1.518,1.518,0,0,0-1.24.893,4.123,4.123,0,0,0-.545,2.132,1.574,1.574,0,0,0,.3.992.75.75,0,0,0,.694.347" transform="translate(-73.856 -15.527)" fill="#231f20"/>
    <path id="Path_9990" data-name="Path 9990" d="M399.991,40.764l-.05.4H398.9l-.843,4.364a8.578,8.578,0,0,1-.744,2.579,2.766,2.766,0,0,1-1.141,1.24,2.906,2.906,0,0,1-1.537.446,3.326,3.326,0,0,1-1.736-.4l.248-1.041h.248a1.246,1.246,0,0,0,1.289,1.14,1.876,1.876,0,0,0,1.388-.6,5.418,5.418,0,0,0,.992-2.678l.942-5.058h-1.041l.05-.4h1.041l.347-1.835a3.375,3.375,0,0,1,.942-1.983,2.562,2.562,0,0,1,1.587-.545,2.937,2.937,0,0,1,1.041.2l.05-.2h.3l-.3,1.339h-.3c-.05-.694-.4-1.091-.942-1.091-.744,0-1.19.6-1.488,1.835l-.446,2.231,1.141.05Zm10.364-.4h.248V42.45h-.248a1.277,1.277,0,0,0-.347-.694,1.571,1.571,0,0,0-.843-.149h-2.132v3.074a.606.606,0,0,0,.149.446.658.658,0,0,0,.5.149h1.488a4.7,4.7,0,0,0,1.091-.1.717.717,0,0,0,.5-.347,2.225,2.225,0,0,0,.446-.793h.248l-.4,1.587h-6.2v-.248a.913.913,0,0,0,.793-.3,1.832,1.832,0,0,0,.2-1.041V38.731a1.92,1.92,0,0,0-.2-1.091.87.87,0,0,0-.744-.3v-.248h6.2v1.438h-.149c-.1-.4-.2-.694-.4-.793-.149-.149-.5-.2-1.041-.2h-2.479V41.21h2.38c.347,0,.545-.05.645-.2a.873.873,0,0,0,.3-.645m2.331,5.306v-.248a.812.812,0,0,0,.744-.3,1.832,1.832,0,0,0,.2-1.041V38.731a2.027,2.027,0,0,0-.2-1.091.87.87,0,0,0-.744-.3v-.248h3.967a4.85,4.85,0,0,1,3.521,1.24,4.157,4.157,0,0,1,1.339,3.174,3.858,3.858,0,0,1-1.24,3.025,5.044,5.044,0,0,1-3.471,1.14Zm3.719-8.231h-1.636v6.347a2.429,2.429,0,0,0,.2,1.24c.149.248.446.347.893.347h.893a3.114,3.114,0,0,0,2.479-1.041,4.062,4.062,0,0,0,.893-2.777,4.395,4.395,0,0,0-.992-2.975,3.408,3.408,0,0,0-2.727-1.14m9.273-.3v.248a.87.87,0,0,0-.744.3,1.92,1.92,0,0,0-.2,1.091v5.355a1.832,1.832,0,0,0,.2,1.041.87.87,0,0,0,.744.3v.248H422.6v-.248q.6,0,.744-.3a1.92,1.92,0,0,0,.2-1.091V38.731a1.92,1.92,0,0,0-.2-1.091.912.912,0,0,0-.793-.3v-.248h3.124Zm7.636.248v-.248h2.579v.248a1.021,1.021,0,0,0-.843.3,1.774,1.774,0,0,0-.248,1.041v6.992h-.248l-6.1-7.438v6a1.277,1.277,0,0,0,.248.893,1.021,1.021,0,0,0,.843.3v.248h-2.579v-.248a.908.908,0,0,0,.843-.347,2.119,2.119,0,0,0,.2-1.14V38.979a1.907,1.907,0,0,0-.3-1.19,1.23,1.23,0,0,0-.992-.4v-.248H428.9l5.4,6.694V38.78a1.846,1.846,0,0,0-.248-1.091c-.05-.2-.347-.3-.744-.3m7.488,8.281h-3.967v-.248a.87.87,0,0,0,.744-.3,1.832,1.832,0,0,0,.2-1.041V38.731a1.92,1.92,0,0,0-.2-1.091.912.912,0,0,0-.793-.3v-.248h3.223a3.563,3.563,0,0,1,2.182.6,1.779,1.779,0,0,1,.793,1.537c0,.942-.6,1.587-1.736,1.934v.05a2.907,2.907,0,0,1,1.587.843,2.217,2.217,0,0,1,.6,1.537,1.857,1.857,0,0,1-.744,1.537,2.6,2.6,0,0,1-1.884.545m-1.835-8.231v3.62h.893a2.161,2.161,0,0,0,1.488-.5,1.719,1.719,0,0,0,.545-1.289,1.679,1.679,0,0,0-.545-1.339,2.279,2.279,0,0,0-1.537-.5Zm.793,3.967h-.793v2.529a2.119,2.119,0,0,0,.2,1.14c.1.2.347.3.694.3h.694a1.645,1.645,0,0,0,1.24-.5,2.015,2.015,0,0,0,.5-1.339A1.959,1.959,0,0,0,441.594,42a2.813,2.813,0,0,0-1.835-.6m11.454,2.479V38.731a1.832,1.832,0,0,0-.2-1.041.832.832,0,0,0-.694-.3v-.248h3.025v.248a.87.87,0,0,0-.744.3,1.919,1.919,0,0,0-.2,1.091v5.355a1.831,1.831,0,0,0,.2,1.041.87.87,0,0,0,.744.3v.248h-2.132v-1.19a3.588,3.588,0,0,1-2.876,1.388,2.769,2.769,0,0,1-2.132-.793A3.048,3.048,0,0,1,445.412,43V38.78a2.14,2.14,0,0,0-.2-1.091.912.912,0,0,0-.793-.3v-.248h3.124v.248a.912.912,0,0,0-.793.3,1.832,1.832,0,0,0-.2,1.041v4.364a2.211,2.211,0,0,0,.6,1.636,2.171,2.171,0,0,0,1.587.6,2.888,2.888,0,0,0,2.479-1.438m6.2-2.182h-.694v2.38a1.831,1.831,0,0,0,.2,1.041.87.87,0,0,0,.744.3v.248h-3.074v-.248a.912.912,0,0,0,.793-.3,1.832,1.832,0,0,0,.2-1.041V38.731a1.831,1.831,0,0,0-.2-1.041.912.912,0,0,0-.793-.3v-.248h3.521a3.081,3.081,0,0,1,2.083.645,2.1,2.1,0,0,1-.992,3.719,3.176,3.176,0,0,1,.744.694c.248.3.545.793.992,1.438a8.629,8.629,0,0,0,1.041,1.488,1.35,1.35,0,0,0,.793.4v.248h-1.736a18.389,18.389,0,0,1-1.289-1.934,7.334,7.334,0,0,0-1.289-1.686,1.607,1.607,0,0,0-1.041-.446m.2-4.264h-.893v3.917h1.041a2.024,2.024,0,0,0,1.488-.545,1.984,1.984,0,0,0,.545-1.438,1.73,1.73,0,0,0-.6-1.388,2.461,2.461,0,0,0-1.587-.545M471.3,42v.248a1.077,1.077,0,0,0-.793.248,1.37,1.37,0,0,0-.248.893v2.331a9.337,9.337,0,0,1-1.141.149c-.545.05-.992.05-1.289.05a5.4,5.4,0,0,1-3.719-1.19,3.877,3.877,0,0,1-1.339-3.074,5.036,5.036,0,0,1,.6-2.43A4.551,4.551,0,0,1,467.23,36.9a6.169,6.169,0,0,1,1.537.248,3.041,3.041,0,0,0,.793.149.5.5,0,0,0,.5-.3h.248v2.529h-.248a2.425,2.425,0,0,0-.942-1.686,3.2,3.2,0,0,0-1.884-.645A2.723,2.723,0,0,0,465,38.284a4.289,4.289,0,0,0-.893,2.826,5.005,5.005,0,0,0,.992,3.124,3.142,3.142,0,0,0,2.529,1.24c.942,0,1.438-.3,1.438-.893V43.64a1.92,1.92,0,0,0-.2-1.091.87.87,0,0,0-.744-.3h-.347V42Zm7.488,2.083V41.607h-4.661v2.479a1.831,1.831,0,0,0,.2,1.041.912.912,0,0,0,.793.3v.248h-3.124v-.248q.6,0,.744-.3a1.832,1.832,0,0,0,.2-1.041V38.731a1.919,1.919,0,0,0-.2-1.091.87.87,0,0,0-.744-.3v-.248h3.124v.248a.912.912,0,0,0-.793.3,1.831,1.831,0,0,0-.2,1.041V41.16h4.661v-2.43a1.919,1.919,0,0,0-.2-1.091.87.87,0,0,0-.744-.3v-.248h3.074v.248a.87.87,0,0,0-.744.3,1.92,1.92,0,0,0-.2,1.091v5.355a1.731,1.731,0,0,0,.2,1.041.87.87,0,0,0,.744.3v.248h-3.074v-.248q.6,0,.744-.3a2.385,2.385,0,0,0,.2-1.041" transform="translate(-197.217 -15.124)" fill="#231f20"/>
  </g>
</svg>
